<?xml version="1.0" encoding="UTF-8"?>
<svg version="1.1" xmlns="http://www.w3.org/2000/svg" width="1024" height="1024">
<path d="M0 0 C337.92 0 675.84 0 1024 0 C1024 337.92 1024 675.84 1024 1024 C686.08 1024 348.16 1024 0 1024 C0 686.08 0 348.16 0 0 Z " fill="#F5F6F6" transform="translate(0,0)"/>
<path d="M0 0 C1.01597511 -0.01949455 1.01597511 -0.01949455 2.05247498 -0.03938293 C9.10023462 -0.16568741 16.14911874 -0.2227418 23.19775391 -0.27441406 C26.53273783 -0.30115636 29.86629199 -0.34989993 33.20068359 -0.41796875 C37.24727744 -0.50032888 41.29251077 -0.5426571 45.33989716 -0.55747795 C46.87248668 -0.56964913 48.40503675 -0.59550362 49.93714142 -0.6359272 C57.4719755 -0.82480524 63.53886472 -0.82791359 69.68408203 4.07104492 C71.12328865 5.44644287 72.54929138 6.83582673 73.95996094 8.24047852 C75.51122248 9.44128263 77.07938893 10.62089577 78.67089844 11.76782227 C79.4355542 12.32840332 80.20020996 12.88898438 80.98803711 13.46655273 C81.76252197 14.03132324 82.53700684 14.59609375 83.33496094 15.17797852 C84.98499557 16.38721143 86.63473497 17.59684731 88.28417969 18.80688477 C89.07743652 19.38841309 89.87069336 19.96994141 90.68798828 20.5690918 C95.47300635 24.08921147 100.21797306 27.66269125 104.95996094 31.24047852 C103.60055957 34.37518276 102.17161818 36.1719742 99.51074219 38.29907227 C98.82689453 38.85014648 98.14304687 39.4012207 97.43847656 39.96899414 C96.36629883 40.81494141 96.36629883 40.81494141 95.27246094 41.67797852 C94.57701172 42.23807617 93.8815625 42.79817383 93.16503906 43.37524414 C89.86714241 46.01417732 86.53843813 48.56542329 83.07714844 50.98657227 C80.04754622 53.17714931 78.20878795 55.29373967 75.95996094 58.24047852 C75.23808594 58.77672852 74.51621094 59.31297852 73.77246094 59.86547852 C71.65997261 61.19930365 71.65997261 61.19930365 70.95996094 64.24047852 C72.05308594 64.05485352 73.14621094 63.86922852 74.27246094 63.67797852 C77.95996094 63.24047852 77.95996094 63.24047852 80.95996094 64.24047852 C81.28996094 63.91047852 81.61996094 63.58047852 81.95996094 63.24047852 C83.49923058 62.99572875 85.04151071 62.76980763 86.58496094 62.55297852 C91.17201869 61.64848825 93.55345102 60.40116062 96.87402344 57.19750977 C99.63322347 54.60882209 102.60192335 52.31160545 105.58496094 49.99047852 C106.18236084 49.52134033 106.77976074 49.05220215 107.39526367 48.56884766 C110.48029965 46.15066891 113.58432352 43.76229801 116.72167969 41.41235352 C117.31835449 40.96279297 117.9150293 40.51323242 118.52978516 40.05004883 C119.66867967 39.19420263 120.81207963 38.34431067 121.96044922 37.5012207 C124.66530841 35.46512197 125.86161116 34.53552785 126.95996094 31.24047852 C126.16730835 30.65931274 126.16730835 30.65931274 125.35864258 30.06640625 C122.91227571 28.27158567 120.46736467 26.47479161 118.02246094 24.67797852 C117.19166016 24.06889648 116.36085938 23.45981445 115.50488281 22.83227539 C110.58893236 19.21704334 105.73146134 15.53984139 100.92651367 11.77832031 C99.34232598 10.5394875 97.74666188 9.31533798 96.14746094 8.09594727 C95.42558594 7.54551758 94.70371094 6.99508789 93.95996094 6.42797852 C93.21746094 5.8646582 92.47496094 5.30133789 91.70996094 4.72094727 C89.95996094 3.24047852 89.95996094 3.24047852 88.95996094 1.24047852 C98.66186554 1.19392103 108.36373105 1.15849123 118.06572342 1.13685417 C122.57185085 1.12646395 127.07790126 1.11239287 131.58398438 1.08959961 C135.94119767 1.06769997 140.29833737 1.05587418 144.6556015 1.05072403 C146.30918281 1.04705875 147.96276057 1.0399024 149.61631012 1.0290184 C172.76609785 0.8828487 195.91727559 5.78099701 213.95996094 21.24047852 C214.91644531 21.98813477 215.87292969 22.73579102 216.85839844 23.50610352 C220.12893161 26.23865989 222.53546369 29.31697607 224.95996094 32.80297852 C225.60505615 33.72433594 225.60505615 33.72433594 226.26318359 34.66430664 C238.06616421 51.86940362 242.35878507 70.99553356 242.15527344 91.66625977 C242.15102859 93.33666573 242.15102859 93.33666573 242.146698 95.04081726 C242.13563795 98.54498745 242.11056116 102.04888756 242.08496094 105.55297852 C242.07491278 107.95076124 242.06579017 110.34854804 242.05761719 112.74633789 C242.03745969 118.57790203 241.99828461 124.40889339 241.95996094 130.24047852 C249.21996094 130.24047852 256.47996094 130.24047852 263.95996094 130.24047852 C261.91026285 134.33987468 259.98891389 137.88917102 257.48339844 141.65454102 C256.81727539 142.65670654 256.15115234 143.65887207 255.46484375 144.69140625 C254.76198242 145.7388501 254.05912109 146.78629395 253.33496094 147.86547852 C252.61147461 148.94708252 251.88798828 150.02868652 251.14257812 151.14306641 C246.96943597 157.34890545 242.71555197 163.42594006 238.15136719 169.34985352 C235.39675241 172.98339172 232.77044259 176.69879924 230.14746094 180.42797852 C229.64706299 181.13680176 229.14666504 181.845625 228.63110352 182.57592773 C225.93624133 186.40092115 223.26983905 190.24322286 220.63183594 194.10766602 C220.09018799 194.89375244 219.54854004 195.67983887 218.99047852 196.48974609 C217.94543799 198.00725705 216.90850582 199.53039074 215.88061523 201.05957031 C214.64871857 202.84080632 213.31262136 204.54912377 211.95996094 206.24047852 C210.96996094 206.24047852 209.97996094 206.24047852 208.95996094 206.24047852 C207.55297852 204.77856445 207.55297852 204.77856445 206.10449219 202.72485352 C205.56783936 201.97316895 205.03118652 201.22148438 204.47827148 200.44702148 C203.63389526 199.23103271 203.63389526 199.23103271 202.77246094 197.99047852 C202.1960083 197.17595215 201.61955566 196.36142578 201.02563477 195.5222168 C196.55260029 189.17399918 192.18786682 182.75477458 187.95996094 176.24047852 C187.62996094 176.90047852 187.29996094 177.56047852 186.95996094 178.24047852 C186.19683594 178.17860352 185.43371094 178.11672852 184.64746094 178.05297852 C181.47215288 178.27451164 181.00260435 178.95822884 178.95996094 181.24047852 C184.89795606 189.86256739 190.89336805 198.44224956 196.94824219 206.98266602 C198.93903569 209.79070561 200.91437493 212.60864504 202.87792969 215.43579102 C203.78022006 216.72489088 204.68256127 218.01395516 205.58496094 219.30297852 C206.20552368 220.20584595 206.20552368 220.20584595 206.83862305 221.12695312 C207.8293062 222.53450274 208.88836261 223.8935093 209.95996094 225.24047852 C210.61996094 225.24047852 211.27996094 225.24047852 211.95996094 225.24047852 C213.29639546 223.6789168 213.29639546 223.6789168 214.61230469 221.61157227 C215.13630859 220.83072266 215.6603125 220.04987305 216.20019531 219.24536133 C216.76029297 218.398125 217.32039063 217.55088867 217.89746094 216.67797852 C223.31852526 208.60695259 228.91921246 200.71226126 234.72949219 192.91821289 C236.084469 191.07071276 237.39598854 189.19543801 238.70996094 187.31860352 C239.82371094 185.79493164 239.82371094 185.79493164 240.95996094 184.24047852 C241.28996094 184.24047852 241.61996094 184.24047852 241.95996094 184.24047852 C242.02989481 194.41207767 242.08299031 204.58361834 242.11539745 214.75541019 C242.13096201 219.48009378 242.15202899 224.20461121 242.1862793 228.92919922 C242.21920508 233.50040221 242.23688292 238.07144678 242.24459267 242.64275932 C242.25007724 244.37481615 242.2607845 246.10686566 242.27715111 247.83885384 C242.50540834 273.02741587 236.80283723 298.0946522 218.64746094 316.58813477 C217.76058594 317.4634082 216.87371094 318.33868164 215.95996094 319.24047852 C215.27933594 319.91981445 214.59871094 320.59915039 213.89746094 321.29907227 C206.36102826 328.348777 197.39261249 332.9648326 187.77246094 336.49047852 C187.15121338 336.72452393 186.52996582 336.95856934 185.88989258 337.19970703 C171.3587037 342.21846067 156.59338008 342.65334473 141.39746094 342.42797852 C139.59604005 342.41287873 137.79460667 342.39919984 135.99316406 342.38696289 C131.64818657 342.35702506 127.30500608 342.2982413 122.95996094 342.24047852 C122.95996094 349.17047852 122.95996094 356.10047852 122.95996094 363.24047852 C119.23135037 361.74903429 117.0699966 360.79237353 114.01855469 358.51000977 C113.28064697 357.96223877 112.54273926 357.41446777 111.7824707 356.85009766 C110.99541748 356.25704834 110.20836426 355.66399902 109.39746094 355.05297852 C108.564646 354.43221436 107.73183105 353.8114502 106.8737793 353.171875 C104.23167267 351.20024588 101.59554393 349.22081683 98.95996094 347.24047852 C97.29614447 345.99535801 95.63208645 344.75056022 93.96777344 343.50610352 C89.81732519 340.3999246 85.6722918 337.28660401 81.52880859 334.17114258 C77.09188825 330.8364946 72.6506691 327.50757958 68.20996094 324.17797852 C66.61098351 322.97878523 65.01202429 321.77956766 63.41308594 320.58032227 C62.67380859 320.02586426 61.93453125 319.47140625 61.17285156 318.90014648 C57.76855469 316.34692383 54.36425781 313.79370117 50.95996094 311.24047852 C51.14558594 310.58047852 51.33121094 309.92047852 51.52246094 309.24047852 C51.98467524 306.07100901 51.62358688 303.39450853 51.15136719 300.24438477 C50.88556479 297.46159645 51.34978655 294.95236468 51.95996094 292.24047852 C46.40467499 294.69081961 41.95332449 298.17315471 37.20996094 301.92797852 C35.69777613 303.12374818 34.18231151 304.31538572 32.66308594 305.50219727 C31.99954102 306.02773193 31.33599609 306.5532666 30.65234375 307.09472656 C28.95996094 308.24047852 28.95996094 308.24047852 26.95996094 308.24047852 C26.95996094 308.90047852 26.95996094 309.56047852 26.95996094 310.24047852 C27.67023438 310.47637695 28.38050781 310.71227539 29.11230469 310.95532227 C32.46240653 312.4672338 34.74962729 314.3923109 37.52246094 316.80297852 C44.46417187 322.74191392 51.7071183 328.22350468 59.15917969 333.51000977 C60.1659375 334.22543945 61.17269531 334.94086914 62.20996094 335.67797852 C63.12261719 336.31606445 64.03527344 336.95415039 64.97558594 337.61157227 C65.95785156 338.41788086 65.95785156 338.41788086 66.95996094 339.24047852 C66.95996094 339.90047852 66.95996094 340.56047852 66.95996094 341.24047852 C56.54489788 341.33375721 46.12993657 341.40453401 35.71453857 341.4477272 C30.87659801 341.46847301 26.03894628 341.49654841 21.20117188 341.54223633 C16.51972678 341.58616385 11.83855691 341.609713 7.15692139 341.61998749 C5.38380611 341.62729571 3.6107034 341.64156283 1.83770752 341.66339874 C-12.61910967 341.83412856 -26.45184968 340.48577396 -39.41503906 333.42797852 C-40.07656982 333.08033447 -40.73810059 332.73269043 -41.41967773 332.37451172 C-60.5190581 322.13795287 -74.37318806 306.97919002 -80.89404297 286.16625977 C-86.00609904 268.87822803 -86.53779271 252.53031006 -86.29003906 234.55297852 C-86.26992458 231.98984158 -86.25168265 229.42668923 -86.23535156 226.86352539 C-86.19523275 220.65513919 -86.11687125 214.44894619 -86.04003906 208.24047852 C-93.63003906 208.24047852 -101.22003906 208.24047852 -109.04003906 208.24047852 C-104.53808974 200.36206721 -104.53808974 200.36206721 -102.38378906 197.45141602 C-101.9184375 196.81977539 -101.45308594 196.18813477 -100.97363281 195.53735352 C-100.50054687 194.90313477 -100.02746094 194.26891602 -99.54003906 193.61547852 C-99.06695312 192.97352539 -98.59386719 192.33157227 -98.10644531 191.67016602 C-96.03230166 188.86633748 -93.94889261 186.13262188 -91.69628906 183.46704102 C-89.74161796 181.30180279 -89.74161796 181.30180279 -90.04003906 178.24047852 C-99.28003906 178.24047852 -108.52003906 178.24047852 -118.04003906 178.24047852 C-118.04003906 159.10047852 -118.04003906 139.96047852 -118.04003906 120.24047852 C-109.13003906 120.24047852 -100.22003906 120.24047852 -91.04003906 120.24047852 C-89.32560688 118.52604633 -89.80950939 116.23602611 -89.72363281 113.89282227 C-89.68173828 112.81323242 -89.63984375 111.73364258 -89.59667969 110.62133789 C-89.55736328 109.4850293 -89.51804687 108.3487207 -89.47753906 107.17797852 C-89.43435547 106.03780273 -89.39117187 104.89762695 -89.34667969 103.72290039 C-89.24021067 100.89555656 -89.13819699 98.06812113 -89.04003906 95.24047852 C-88.71003906 95.24047852 -88.38003906 95.24047852 -88.04003906 95.24047852 C-87.9351416 94.23017578 -87.9351416 94.23017578 -87.828125 93.19946289 C-85.199183 68.39780424 -81.31723393 46.97948988 -65.04003906 27.24047852 C-64.26466797 26.29495117 -64.26466797 26.29495117 -63.47363281 25.33032227 C-48.23404764 8.56295913 -22.08072926 0.39723985 0 0 Z " fill="#F4F5F4" transform="translate(434.0400390625,334.759521484375)"/>
<path d="M0 0 C4.93110198 1.23277549 5.87153114 3.14957679 9 7 C9.99 7.33 10.98 7.66 12 8 C14.05920227 14.02618229 14.26967684 19.64785333 14.1953125 25.96875 C14.1924826 26.88966431 14.18965271 27.81057861 14.18673706 28.75939941 C14.17562775 31.67307052 14.15054078 34.58642331 14.125 37.5 C14.11495823 39.4869747 14.10583448 41.47395426 14.09765625 43.4609375 C14.07742848 48.30751011 14.03826261 53.15340277 14 58 C6.74 58 -0.52 58 -8 58 C-4.34383949 63.48424076 -0.68025462 68.95146143 3.0625 74.375 C3.51858643 75.03983398 3.97467285 75.70466797 4.44458008 76.38964844 C7.13961063 80.31611109 9.85844061 84.22414892 12.6015625 88.1171875 C13.79688837 89.82811566 14.9922011 91.539053 16.1875 93.25 C16.76443604 94.06001465 17.34137207 94.8700293 17.93579102 95.70458984 C18.46615967 96.46723145 18.99652832 97.22987305 19.54296875 98.015625 C20.01758545 98.68883789 20.49220215 99.36205078 20.98120117 100.05566406 C22 102 22 102 22 106 C20.8553125 105.9071875 20.8553125 105.9071875 19.6875 105.8125 C16.51219194 106.03403312 16.04264341 106.71775032 14 109 C19.93799512 117.62208888 25.93340711 126.20177105 31.98828125 134.7421875 C33.97907476 137.5502271 35.95441399 140.36816652 37.91796875 143.1953125 C38.82025913 144.48441236 39.72260033 145.77347665 40.625 147.0625 C41.0387085 147.66441162 41.45241699 148.26632324 41.87866211 148.88647461 C42.86934526 150.29402423 43.92840167 151.65303079 45 153 C45.66 153 46.32 153 47 153 C48.33643453 151.43843829 48.33643453 151.43843829 49.65234375 149.37109375 C50.17634766 148.59024414 50.70035156 147.80939453 51.24023438 147.00488281 C51.80033203 146.15764648 52.36042969 145.31041016 52.9375 144.4375 C58.35856432 136.36647407 63.95925152 128.47178275 69.76953125 120.67773438 C71.12450806 118.83023425 72.43602761 116.95495949 73.75 115.078125 C74.86375 113.55445313 74.86375 113.55445313 76 112 C76.33 112 76.66 112 77 112 C77.06993387 122.17159916 77.12302938 132.34313982 77.15543652 142.51493168 C77.17100108 147.23961526 77.19206805 151.9641327 77.22631836 156.6887207 C77.25924414 161.25992369 77.27692199 165.83096826 77.28463173 170.40228081 C77.2901163 172.13433763 77.30082356 173.86638714 77.31719017 175.59837532 C77.5454474 200.78693735 71.84287629 225.85417368 53.6875 244.34765625 C52.3571875 245.66056641 52.3571875 245.66056641 51 247 C50.319375 247.67933594 49.63875 248.35867188 48.9375 249.05859375 C41.40106732 256.10829849 32.43265155 260.72435408 22.8125 264.25 C22.19125244 264.48404541 21.57000488 264.71809082 20.92993164 264.95922852 C6.39874276 269.97798216 -8.36658086 270.41286621 -23.5625 270.1875 C-25.36392089 270.17240021 -27.16535426 270.15872133 -28.96679688 270.14648438 C-33.31177437 270.11654654 -37.65495486 270.05776279 -42 270 C-42 276.93 -42 283.86 -42 291 C-45.72861057 289.50855577 -47.88996434 288.55189501 -50.94140625 286.26953125 C-51.67931396 285.72176025 -52.41722168 285.17398926 -53.17749023 284.60961914 C-53.96454346 284.01656982 -54.75159668 283.42352051 -55.5625 282.8125 C-56.39531494 282.19173584 -57.22812988 281.57097168 -58.08618164 280.93139648 C-60.72828827 278.95976737 -63.36441701 276.98033831 -66 275 C-67.66381647 273.7548795 -69.32787449 272.51008171 -70.9921875 271.265625 C-75.14263575 268.15944608 -79.28766914 265.0461255 -83.43115234 261.93066406 C-87.86807269 258.59601608 -92.30929184 255.26710106 -96.75 251.9375 C-98.34897743 250.73830671 -99.94793665 249.53908915 -101.546875 248.33984375 C-102.28615234 247.78538574 -103.02542969 247.23092773 -103.78710938 246.65966797 C-107.19140625 244.10644531 -110.59570312 241.55322266 -114 239 C-113.814375 238.34 -113.62875 237.68 -113.4375 237 C-112.9752857 233.8305305 -113.33637406 231.15403001 -113.80859375 228.00390625 C-114.07439614 225.22111793 -113.61017439 222.71188617 -113 220 C-113.66 219.67 -114.32 219.34 -115 219 C-114.52054932 218.64695801 -114.04109863 218.29391602 -113.54711914 217.93017578 C-111.38246363 216.33262272 -109.22245165 214.72890632 -107.0625 213.125 C-106.30775391 212.56941406 -105.55300781 212.01382813 -104.77539062 211.44140625 C-104.05673828 210.90644531 -103.33808594 210.37148438 -102.59765625 209.8203125 C-101.93258057 209.32805176 -101.26750488 208.83579102 -100.58227539 208.32861328 C-98.86859312 207.06834656 -98.86859312 207.06834656 -98 205 C-98.8504187 205.00785522 -98.8504187 205.00785522 -99.71801758 205.01586914 C-112.8527802 205.12027061 -125.89190773 204.84763645 -139 204 C-139 203.34 -139 202.68 -139 202 C-139.66 201.67 -140.32 201.34 -141 201 C-141.02464849 195.60653012 -141.04283531 190.21309275 -141.05493164 184.81958008 C-141.05997231 182.98331125 -141.06680477 181.14704646 -141.07543945 179.31079102 C-141.08751672 176.67723599 -141.09323081 174.04373384 -141.09765625 171.41015625 C-141.10281754 170.58411392 -141.10797882 169.75807159 -141.11329651 168.90699768 C-141.11349205 166.93763632 -141.06204152 164.96838386 -141 163 C-140 162 -140 162 -137.40795898 161.88647461 C-136.28204346 161.89171143 -135.15612793 161.89694824 -133.99609375 161.90234375 C-132.78115234 161.90556641 -131.56621094 161.90878906 -130.31445312 161.91210938 C-129.03505859 161.92048828 -127.75566406 161.92886719 -126.4375 161.9375 C-125.15423828 161.94201172 -123.87097656 161.94652344 -122.54882812 161.95117188 C-119.3658658 161.96300445 -116.18292726 161.98094056 -113 162 C-113 156.06 -113 150.12 -113 144 C-113.66 143.67 -114.32 143.34 -115 143 C-113.3046875 141.453125 -113.3046875 141.453125 -111 140 C-108.6328125 140.109375 -108.6328125 140.109375 -106.125 140.75 C-86.00776787 145.66894704 -67.58673855 142.55701114 -50 132 C-43.76563075 127.916314 -37.39843468 122.79686935 -34 116 C-33.61496624 112.45768939 -33.58064041 110.63742658 -35.5625 107.625 C-38.94354924 105.37096717 -40.99327178 105.54391498 -45 106 C-47.79074538 108.13118866 -47.79074538 108.13118866 -50.1875 111.0625 C-58.97472335 120.58505585 -69.62815751 126.28528376 -82.63671875 127.27734375 C-98.9420478 127.68951081 -111.33300161 122.95056926 -123.1640625 111.79296875 C-123.76992188 111.20128906 -124.37578125 110.60960937 -125 110 C-124.34 108.35 -123.68 106.7 -123 105 C-119.7 105 -116.4 105 -113 105 C-112.9752655 100.92489562 -112.95712363 96.84982036 -112.94506836 92.7746582 C-112.94004223 91.38858275 -112.93322034 90.00251259 -112.92456055 88.61645508 C-112.91241982 86.62323285 -112.90728979 84.62997181 -112.90234375 82.63671875 C-112.89710693 81.43748779 -112.89187012 80.23825684 -112.88647461 79.00268555 C-112.86154382 75.94843549 -112.86154382 75.94843549 -114 73 C-112.20963542 72.0234375 -110.41927083 71.046875 -108.62890625 70.0703125 C-106.83381685 69.08589976 -106.83381685 69.08589976 -106 67 C-104.83218826 60.14095381 -106.78709597 55.78513447 -110.4921875 50.06640625 C-111.9763986 47.92066152 -111.9763986 47.92066152 -114 46 C-114.15112305 43.49389648 -114.15112305 43.49389648 -114.01171875 40.37109375 C-113.96466797 39.25412109 -113.91761719 38.13714844 -113.86914062 36.98632812 C-113.80919922 35.81521484 -113.74925781 34.64410156 -113.6875 33.4375 C-113.61499023 31.6750293 -113.61499023 31.6750293 -113.54101562 29.87695312 C-113.14238423 21.14238423 -113.14238423 21.14238423 -112 20 C-110.00035018 19.91241997 -107.9976389 19.89303424 -105.99609375 19.90234375 C-104.90224365 19.90484131 -103.80839355 19.90733887 -102.68139648 19.90991211 C-101.28091064 19.91901611 -99.8804248 19.92812012 -98.4375 19.9375 C-91.7859375 19.9684375 -91.7859375 19.9684375 -85 20 C-85 29.24 -85 38.48 -85 48 C-78.4 48 -71.8 48 -65 48 C-65 52 -65 52 -66.5 55.25 C-68.36237964 59.39357192 -68.51939369 62.47385503 -68 67 C-66.54002013 69.62716577 -66.54002013 69.62716577 -64 71 C-60.49284198 71.58452634 -58.80263608 71.56656665 -55.875 69.5 C-54.23493474 67.31324632 -53.16333379 65.38591181 -52 62.9375 C-49.36521223 57.49564988 -49.36521223 57.49564988 -46 56 C-41.59421918 55.5104688 -39.19889827 55.40055087 -35.25 57.375 C-32.4699175 60.61842958 -31.27475389 63.84401316 -29.89453125 67.85546875 C-29.20291338 70.17076257 -29.20291338 70.17076257 -27 71 C-23.16385043 71.35519903 -20.85370366 71.54724594 -17.5625 69.4375 C-15.31590796 65.93281642 -15.400104 64.13261692 -16 60 C-17.17361252 57.29135104 -18.4812456 54.7215184 -19.90625 52.13671875 C-21 50 -21 50 -21 48 C-14.07 48 -7.14 48 0 48 C0 32.16 0 16.32 0 0 Z " fill="#F5F6F6" transform="translate(599,407)"/>
<path d="M0 0 C1.37932457 -0.01007584 1.37932457 -0.01007584 2.78651428 -0.02035522 C5.81777396 -0.03930672 8.84881176 -0.04325837 11.88012695 -0.04541016 C13.99754424 -0.05184136 16.11496065 -0.05856996 18.2323761 -0.06558228 C22.66991229 -0.07754887 27.10737069 -0.08126386 31.54492188 -0.08007812 C37.20942178 -0.07987527 42.87341809 -0.10714547 48.53779888 -0.14162254 C52.91236119 -0.16394985 57.28680357 -0.16791383 61.66141701 -0.16685867 C63.74844913 -0.16920708 65.83548494 -0.17798738 67.92246056 -0.19352341 C84.06532903 -0.30241904 96.17983817 1.03373177 108.6809082 12.29052734 C115.64980995 20.08690537 119.96071112 29.10672645 119.77856445 39.64208984 C119.76446533 40.70508301 119.75036621 41.76807617 119.73583984 42.86328125 C119.7177124 43.66427246 119.69958496 44.46526367 119.6809082 45.29052734 C121.08792999 45.27720367 121.08792999 45.27720367 122.52337646 45.26361084 C131.40812058 45.18215866 140.29278791 45.1223874 149.17782211 45.08327866 C153.74460284 45.06249575 158.31107966 45.03435038 162.87768555 44.98876953 C167.29327589 44.94497704 171.70857583 44.92132052 176.12436676 44.91101837 C177.80031143 44.90368643 179.47624207 44.8893706 181.15206146 44.86760712 C195.67422691 44.68668945 208.30333926 46.57666762 219.3918457 56.88037109 C228.80585477 67.0350763 229.6809082 76.54030923 229.6809082 90.29052734 C104.2809082 90.29052734 -21.1190918 90.29052734 -150.3190918 90.29052734 C-150.3190918 74.03126812 -149.34126382 66.82218673 -138.65893555 55.53662109 C-131.55285164 48.83371925 -122.19248757 46.1303942 -112.63476562 46.17700195 C-111.8540419 46.17685593 -111.07331818 46.1767099 -110.26893616 46.17655945 C-107.68797021 46.1772562 -105.10707639 46.18503752 -102.52612305 46.19287109 C-100.73679138 46.19473612 -98.94745919 46.19615962 -97.15812683 46.19715881 C-92.44811595 46.20097736 -87.7381359 46.21080201 -83.02813721 46.22186279 C-78.22213152 46.23209114 -73.41612085 46.23665949 -68.61010742 46.24169922 C-59.17975534 46.25242485 -49.74942613 46.26949335 -40.3190918 46.29052734 C-40.33975708 44.96661987 -40.33975708 44.96661987 -40.36083984 43.6159668 C-40.37155518 42.45282959 -40.38227051 41.28969238 -40.39331055 40.09130859 C-40.41397583 38.36521362 -40.41397583 38.36521362 -40.43505859 36.60424805 C-40.16139917 28.78450208 -36.79983936 22.54303183 -32.3190918 16.29052734 C-31.90014648 15.69369141 -31.48120117 15.09685547 -31.04956055 14.48193359 C-23.2555597 4.39690079 -12.38918434 -0.0130752 0 0 Z " fill="#569349" transform="translate(472.319091796875,225.70947265625)"/>
<path d="M0 0 C4.2121039 1.51597361 6.14252346 4.5689276 8.5625 8.125 C8.99449707 8.74463623 9.42649414 9.36427246 9.87158203 10.00268555 C11.25717466 11.99543958 12.62958305 13.99678566 14 16 C14.89163513 17.29577386 15.78356014 18.5913483 16.67578125 19.88671875 C18.03720063 21.86550297 19.39733967 23.84512383 20.75439453 25.8269043 C25.58373534 32.8752454 30.51783699 39.84809958 35.45751953 46.81933594 C37.04729776 49.06686666 38.63175607 51.31806491 40.21484375 53.5703125 C40.74408447 54.32256104 41.2733252 55.07480957 41.81860352 55.84985352 C42.81867137 57.27159704 43.81792675 58.6939126 44.81616211 60.11694336 C47.74112261 64.27066374 50.75684944 68.33035859 53.88525391 72.33374023 C55 74 55 74 55 76 C47.41 76 39.82 76 32 76 C32.09731757 81.95942068 32.2002858 87.91820716 32.31738281 93.87719727 C32.35548979 95.90122678 32.39037338 97.9253198 32.421875 99.94946289 C32.46792511 102.87148627 32.52585084 105.79307924 32.5859375 108.71484375 C32.59748871 109.60896469 32.60903992 110.50308563 32.62094116 111.42430115 C32.87455262 122.40382632 34.89615197 130.89615197 42.8125 138.8125 C51.32599985 144.65509794 59.70216054 144.46981777 69.65625 144.51171875 C71.16940753 144.52858691 72.68255122 144.54674 74.19567871 144.56611633 C78.1542529 144.61339093 82.11277099 144.64334532 86.0715332 144.66955566 C90.12071811 144.69947575 94.16971016 144.7459664 98.21875 144.79101562 C106.14573806 144.87679185 114.07274414 144.94425042 122 145 C116.54217467 150.50118013 116.54217467 150.50118013 113.609375 152.65625 C112.6805249 153.34509277 112.6805249 153.34509277 111.73291016 154.04785156 C111.0785498 154.52706055 110.42418945 155.00626953 109.75 155.5 C108.33521497 156.54589834 106.92117963 157.59281138 105.5078125 158.640625 C104.7746582 159.18396484 104.04150391 159.72730469 103.28613281 160.28710938 C100.92024308 162.05975806 98.57856695 163.86053539 96.2421875 165.671875 C95.47036133 166.26935547 94.69853516 166.86683594 93.90332031 167.48242188 C92.40248611 168.64680675 90.90436253 169.8146952 89.40917969 170.98632812 C88.39065918 171.77426758 88.39065918 171.77426758 87.3515625 172.578125 C86.75166504 173.04637695 86.15176758 173.51462891 85.53369141 173.99707031 C84 175 84 175 82 175 C82 175.66 82 176.32 82 177 C82.71027344 177.23589844 83.42054688 177.47179687 84.15234375 177.71484375 C87.50244559 179.22675528 89.78966635 181.15183238 92.5625 183.5625 C99.50421093 189.5014354 106.74715736 194.98302616 114.19921875 200.26953125 C115.20597656 200.98496094 116.21273437 201.70039062 117.25 202.4375 C118.16265625 203.07558594 119.0753125 203.71367188 120.015625 204.37109375 C120.99789062 205.17740234 120.99789062 205.17740234 122 206 C122 206.66 122 207.32 122 208 C111.58493694 208.09327869 101.16997563 208.1640555 90.75457764 208.20724869 C85.91663708 208.2279945 81.07898534 208.25606989 76.24121094 208.30175781 C71.55976584 208.34568533 66.87859597 208.36923448 62.19696045 208.37950897 C60.42384517 208.3868172 58.65074246 208.40108431 56.87774658 208.42292023 C42.42092939 208.59365004 28.58818938 207.24529545 15.625 200.1875 C14.96346924 199.83985596 14.30193848 199.49221191 13.62036133 199.1340332 C-5.47901903 188.89747436 -19.33314899 173.73871151 -25.85400391 152.92578125 C-30.96605997 135.63774952 -31.49775364 119.28983154 -31.25 101.3125 C-31.22988551 98.74936306 -31.21164359 96.18621071 -31.1953125 93.62304688 C-31.15519369 87.41466067 -31.07683219 81.20846767 -31 75 C-38.59 75 -46.18 75 -54 75 C-49.50292955 67.13012672 -49.50292955 67.13012672 -47.66015625 64.66796875 C-47.03536377 63.82552612 -47.03536377 63.82552612 -46.39794922 62.96606445 C-45.95725098 62.37913818 -45.51655273 61.79221191 -45.0625 61.1875 C-44.08652884 59.8729232 -43.11130113 58.55779422 -42.13671875 57.2421875 C-41.37174072 56.21109863 -41.37174072 56.21109863 -40.59130859 55.15917969 C-37.82074723 51.39992152 -35.10110063 47.6040513 -32.375 43.8125 C-28.06355076 37.82692754 -23.69960507 31.89056822 -19.25390625 26.00390625 C-16.5791973 22.43917283 -13.94374205 18.84687202 -11.3125 15.25 C-7.57496958 10.1409876 -3.81467916 5.0518724 0 0 Z " fill="#8CC350" transform="translate(379,468)"/>
<path d="M0 0 C9.7019046 -0.04655749 19.40377011 -0.08198728 29.10576248 -0.10362434 C33.61188992 -0.11401456 38.11794032 -0.12808565 42.62402344 -0.15087891 C46.98123674 -0.17277854 51.33837643 -0.18460433 55.69564056 -0.18975449 C57.34922187 -0.19341976 59.00279963 -0.20057612 60.65634918 -0.21146011 C83.80613691 -0.35762982 106.95731465 4.5405185 125 20 C125.95648437 20.74765625 126.91296875 21.4953125 127.8984375 22.265625 C131.16897068 24.99818138 133.57550275 28.07649755 136 31.5625 C136.43006348 32.17673828 136.86012695 32.79097656 137.30322266 33.42382812 C149.10620328 50.62892511 153.39882413 69.75505504 153.1953125 90.42578125 C153.1924826 91.53938522 153.18965271 92.6529892 153.18673706 93.80033875 C153.17567702 97.30450894 153.15060022 100.80840905 153.125 104.3125 C153.11495184 106.71028273 153.10582923 109.10806952 153.09765625 111.50585938 C153.07749875 117.33742352 153.03832367 123.16841488 153 129 C160.26 129 167.52 129 175 129 C172.95030192 133.09939617 171.02895295 136.64869251 168.5234375 140.4140625 C167.85731445 141.41622803 167.19119141 142.41839355 166.50488281 143.45092773 C165.80202148 144.49837158 165.09916016 145.54581543 164.375 146.625 C163.28977051 148.24740601 163.28977051 148.24740601 162.18261719 149.90258789 C158.00947503 156.10842693 153.75559103 162.18546155 149.19140625 168.109375 C146.43679148 171.7429132 143.81048165 175.45832073 141.1875 179.1875 C140.68710205 179.89632324 140.1867041 180.60514648 139.67114258 181.33544922 C136.97628039 185.16044264 134.30987811 189.00274435 131.671875 192.8671875 C131.13022705 193.65327393 130.5885791 194.43936035 130.03051758 195.24926758 C128.98547705 196.76677854 127.94854488 198.28991222 126.9206543 199.8190918 C125.68875764 201.60032781 124.35266043 203.30864526 123 205 C122.01 205 121.02 205 120 205 C118.7199707 203.71264648 118.7199707 203.71264648 117.42578125 201.87109375 C116.93150635 201.17773926 116.43723145 200.48438477 115.92797852 199.77001953 C115.39487061 199.00028809 114.8617627 198.23055664 114.3125 197.4375 C113.746521 196.63683105 113.18054199 195.83616211 112.59741211 195.01123047 C110.72037595 192.34851151 108.85925669 189.67515892 107 187 C105.69287387 185.1287906 104.38557994 183.25769841 103.078125 181.38671875 C100.37888465 177.51752188 97.68701786 173.64331877 95 169.765625 C91.20484477 164.28986324 87.38668521 158.83051023 83.5625 153.375 C82.42570791 151.75005131 81.28898658 150.1250531 80.15234375 148.5 C78.15168889 145.64070801 76.143833 142.78674888 74.12890625 139.9375 C73.29418113 138.75006306 72.45953901 137.56256775 71.625 136.375 C70.91601562 135.37210938 70.20703125 134.36921875 69.4765625 133.3359375 C68 131 68 131 68 129 C75.26 129 82.52 129 90 129 C89.92565333 123.20095954 89.84251213 117.40336429 89.73754883 111.60498047 C89.70448495 109.63630908 89.67639655 107.66754711 89.65356445 105.69873047 C89.61967492 102.85345186 89.56734529 100.00898961 89.51171875 97.1640625 C89.50532883 96.29697662 89.4989389 95.42989075 89.49235535 94.53652954 C89.30834813 86.72677838 87.87056569 78.33760354 83 72 C80.68380976 69.96447781 80.68380976 69.96447781 78.0625 68.25 C77.20785156 67.65703125 76.35320312 67.0640625 75.47265625 66.453125 C71.12860278 63.90022154 67.30297114 63.85948296 62.30371094 63.79467773 C61.63988403 63.78477814 60.97605713 63.77487854 60.29211426 63.76467896 C58.10623698 63.7331874 55.920338 63.70835563 53.734375 63.68359375 C52.21550951 63.66301355 50.69664962 63.64201679 49.17779541 63.62062073 C45.18628475 63.56551016 41.19472335 63.51605247 37.203125 63.46777344 C33.1275584 63.41747783 29.0520652 63.36183389 24.9765625 63.30664062 C16.98443712 63.19919384 8.99225021 63.09771913 1 63 C1 62.34 1 61.68 1 61 C2.4765625 59.66015625 2.4765625 59.66015625 4.625 58.0625 C8.7036376 54.98114683 12.73962115 51.85668013 16.75 48.6875 C20.38988636 45.81154655 24.04062054 42.95662612 27.75390625 40.17578125 C28.35170898 39.72565674 28.94951172 39.27553223 29.56542969 38.81176758 C30.7061031 37.95530612 31.85112544 37.10459784 33.00097656 36.26049805 C35.70558178 34.22437512 36.90170693 33.29487921 38 30 C37.47156494 29.61255615 36.94312988 29.2251123 36.39868164 28.82592773 C33.95231477 27.03110715 31.50740373 25.23431309 29.0625 23.4375 C28.23169922 22.82841797 27.40089844 22.21933594 26.54492188 21.59179688 C21.62897142 17.97656483 16.7715004 14.29936288 11.96655273 10.5378418 C10.38236504 9.29900899 8.78670094 8.07485947 7.1875 6.85546875 C6.465625 6.30503906 5.74375 5.75460937 5 5.1875 C3.88625 4.34251953 3.88625 4.34251953 2.75 3.48046875 C1 2 1 2 0 0 Z " fill="#8BC24E" transform="translate(523,336)"/>
<path d="M0 0 C2.43038761 2.40026924 4.64258235 4.70555812 6.59375 7.51171875 C7.06111572 8.17921143 7.52848145 8.8467041 8.01000977 9.53442383 C8.74755493 10.60019653 8.74755493 10.60019653 9.5 11.6875 C10.56110309 13.20579544 11.622304 14.72402253 12.68359375 16.2421875 C13.22741699 17.02303711 13.77124023 17.80388672 14.33154297 18.60839844 C17.06049577 22.52013704 19.81177162 26.41605929 22.5625 30.3125 C23.31273437 31.37827271 23.31273437 31.37827271 24.078125 32.46557617 C24.99220978 33.76235569 25.90881597 35.05736373 26.82861328 36.35009766 C27.80096134 37.71965334 28.75968918 39.09886704 29.71484375 40.48046875 C30.13894531 40.98191406 30.56304688 41.48335937 31 42 C31.66 42 32.32 42 33 42 C34.33643453 40.43843829 34.33643453 40.43843829 35.65234375 38.37109375 C36.17634766 37.59024414 36.70035156 36.80939453 37.24023438 36.00488281 C37.80033203 35.15764648 38.36042969 34.31041016 38.9375 33.4375 C44.35856432 25.36647407 49.95925152 17.47178275 55.76953125 9.67773438 C57.12450806 7.83023425 58.43602761 5.95495949 59.75 4.078125 C60.86375 2.55445313 60.86375 2.55445313 62 1 C62.33 1 62.66 1 63 1 C63.06993387 11.17159916 63.12302938 21.34313982 63.15543652 31.51493168 C63.17100108 36.23961526 63.19206805 40.9641327 63.22631836 45.6887207 C63.25924414 50.25992369 63.27692199 54.83096826 63.28463173 59.40228081 C63.2901163 61.13433763 63.30082356 62.86638714 63.31719017 64.59837532 C63.5454474 89.78693735 57.84287629 114.85417368 39.6875 133.34765625 C38.3571875 134.66056641 38.3571875 134.66056641 37 136 C36.319375 136.67933594 35.63875 137.35867188 34.9375 138.05859375 C27.40106732 145.10829849 18.43265155 149.72435408 8.8125 153.25 C8.19125244 153.48404541 7.57000488 153.71809082 6.92993164 153.95922852 C-7.60125724 158.97798216 -22.36658086 159.41286621 -37.5625 159.1875 C-39.36392089 159.17240021 -41.16535426 159.15872133 -42.96679688 159.14648438 C-47.31177437 159.11654654 -51.65495486 159.05776279 -56 159 C-56 165.93 -56 172.86 -56 180 C-59.72861057 178.50855577 -61.88996434 177.55189501 -64.94140625 175.26953125 C-65.67931396 174.72176025 -66.41722168 174.17398926 -67.17749023 173.60961914 C-67.96454346 173.01656982 -68.75159668 172.42352051 -69.5625 171.8125 C-70.39531494 171.19173584 -71.22812988 170.57097168 -72.08618164 169.93139648 C-74.72828827 167.95976737 -77.36441701 165.98033831 -80 164 C-81.66381647 162.7548795 -83.32787449 161.51008171 -84.9921875 160.265625 C-89.14263575 157.15944608 -93.28766914 154.0461255 -97.43115234 150.93066406 C-101.86807269 147.59601608 -106.30929184 144.26710106 -110.75 140.9375 C-112.34897743 139.73830671 -113.94793665 138.53908915 -115.546875 137.33984375 C-116.28615234 136.78538574 -117.02542969 136.23092773 -117.78710938 135.65966797 C-121.19140625 133.10644531 -124.59570312 130.55322266 -128 128 C-123.57600937 118.53560121 -111.04706321 111.99256485 -102.82299805 105.86425781 C-97.13851385 101.62419605 -91.517898 97.31339769 -85.9375 92.9375 C-79.51873613 87.91783561 -73.04187884 82.98328432 -66.5 78.125 C-65.27011353 77.20448853 -65.27011353 77.20448853 -64.01538086 76.26538086 C-63.25749268 75.7060083 -62.49960449 75.14663574 -61.71875 74.5703125 C-61.04779297 74.07289551 -60.37683594 73.57547852 -59.68554688 73.06298828 C-58 72 -58 72 -56 72 C-56 79.59 -56 87.18 -56 95 C-51.32181449 94.92558015 -46.64539692 94.84238416 -41.96801758 94.73754883 C-40.38054922 94.70452021 -38.79296965 94.67642131 -37.20532227 94.65356445 C-27.54609505 94.51075738 -18.98031789 94.33785185 -10.3125 89.5 C-3.07316384 81.67369064 -0.92618491 73.30092033 -0.79467773 62.89306641 C-0.78477814 62.20944031 -0.77487854 61.52581421 -0.76467896 60.82147217 C-0.73331237 58.58153645 -0.70840581 56.34157958 -0.68359375 54.1015625 C-0.66300271 52.54071529 -0.6420057 50.9798734 -0.62062073 49.41903687 C-0.56562195 45.32562579 -0.5161155 41.23216625 -0.46777344 37.13867188 C-0.41739559 32.95568568 -0.36179481 28.77276921 -0.30664062 24.58984375 C-0.19933082 16.39328826 -0.09782637 8.19667414 0 0 Z " fill="#52A6BC" transform="translate(613,518)"/>
<path d="M0 0 C1.01597511 -0.01949455 1.01597511 -0.01949455 2.05247498 -0.03938293 C9.10023462 -0.16568741 16.14911874 -0.2227418 23.19775391 -0.27441406 C26.53273783 -0.30115636 29.86629199 -0.34989993 33.20068359 -0.41796875 C37.24727744 -0.50032888 41.29251077 -0.5426571 45.33989716 -0.55747795 C46.87248668 -0.56964913 48.40503675 -0.59550362 49.93714142 -0.6359272 C57.4719755 -0.82480524 63.53886472 -0.82791359 69.68408203 4.07104492 C71.12328865 5.44644287 72.54929138 6.83582673 73.95996094 8.24047852 C75.51122248 9.44128263 77.07938893 10.62089577 78.67089844 11.76782227 C79.4355542 12.32840332 80.20020996 12.88898438 80.98803711 13.46655273 C81.76252197 14.03132324 82.53700684 14.59609375 83.33496094 15.17797852 C84.98499557 16.38721143 86.63473497 17.59684731 88.28417969 18.80688477 C89.07743652 19.38841309 89.87069336 19.96994141 90.68798828 20.5690918 C95.47300635 24.08921147 100.21797306 27.66269125 104.95996094 31.24047852 C103.6264596 34.28772144 102.278409 36.08658514 99.68652344 38.15844727 C99.03272705 38.68591553 98.37893066 39.21338379 97.70532227 39.75683594 C97.00560303 40.30831299 96.30588379 40.85979004 95.58496094 41.42797852 C94.86397217 42.00459229 94.1429834 42.58120605 93.40014648 43.17529297 C88.28777155 47.24467313 83.10143898 51.20304023 77.85058594 55.09204102 C74.8827443 57.29786926 71.949782 59.54368713 69.02246094 61.80297852 C67.94834352 62.62993307 66.87411873 63.45674816 65.79980469 64.28344727 C63.68136274 65.91394968 61.56427032 67.54615202 59.44873047 69.18041992 C56.66406187 71.32970083 53.87478703 73.47289788 51.08496094 75.61547852 C50.19301025 76.30585205 49.30105957 76.99622559 48.38208008 77.70751953 C47.52348389 78.36550537 46.6648877 79.02349121 45.78027344 79.70141602 C45.0198877 80.28713379 44.25950195 80.87285156 43.47607422 81.47631836 C40.43952304 83.60538093 37.17990832 85.40050858 33.95996094 87.24047852 C33.95996094 79.65047852 33.95996094 72.06047852 33.95996094 64.24047852 C28.83577177 64.29172041 23.71452017 64.35491853 18.59130859 64.44799805 C16.8514978 64.47608555 15.11156229 64.49736045 13.37158203 64.51147461 C10.85873124 64.53307505 8.34736061 64.57980838 5.83496094 64.63110352 C5.06692139 64.63233215 4.29888184 64.63356079 3.50756836 64.63482666 C-3.68405515 64.82641802 -9.80612577 67.38488955 -14.85253906 72.61547852 C-20.96153513 79.12803014 -22.13583745 85.55020819 -22.24536133 94.23388672 C-22.25526093 94.91736679 -22.26516052 95.60084686 -22.27536011 96.30503845 C-22.30679312 98.55041106 -22.33166001 100.79580478 -22.35644531 103.04125977 C-22.37703059 104.60353628 -22.39802746 106.16580743 -22.41941833 107.72807312 C-22.47447657 111.82971837 -22.52395714 115.93141253 -22.57226562 120.03314209 C-22.62259967 124.22274095 -22.67822346 128.41226923 -22.73339844 132.60180664 C-22.84078112 140.81463751 -22.94226982 149.02752761 -23.04003906 157.24047852 C-25.3881711 154.92134359 -27.54528381 152.72980524 -29.37988281 149.98266602 C-29.7969751 149.36544678 -30.21406738 148.74822754 -30.64379883 148.11230469 C-31.08393311 147.45335205 -31.52406738 146.79439941 -31.97753906 146.11547852 C-36.7871752 139.01023985 -41.75470721 132.03335445 -46.79956055 125.09350586 C-47.58568726 124.01190186 -47.58568726 124.01190186 -48.38769531 122.90844727 C-48.85183838 122.27189209 -49.31598145 121.63533691 -49.79418945 120.97949219 C-50.90926107 119.4230244 -51.97796899 117.83358362 -53.04003906 116.24047852 C-57.22941621 117.75436708 -59.13660273 120.76030164 -61.54003906 124.30297852 C-62.1776416 125.21877686 -62.1776416 125.21877686 -62.828125 126.15307617 C-63.74907014 127.47597895 -64.66658348 128.80127591 -65.58105469 130.12866211 C-67.61270238 133.06938375 -69.67213793 135.9901431 -71.73339844 138.91015625 C-72.74205782 140.33914311 -73.7486984 141.76955796 -74.75292969 143.20166016 C-77.24367025 146.74483231 -79.76603397 150.26274142 -82.33691406 153.74829102 C-83.07699707 154.75206787 -83.07699707 154.75206787 -83.83203125 155.77612305 C-84.23067383 156.25936035 -84.62931641 156.74259766 -85.04003906 157.24047852 C-85.37003906 157.24047852 -85.70003906 157.24047852 -86.04003906 157.24047852 C-86.13349424 147.00761312 -86.20418163 136.77485236 -86.24728775 126.5416441 C-86.26799615 121.78786124 -86.2959998 117.03437433 -86.34179688 112.28076172 C-86.3858621 107.67710861 -86.40930133 103.07373672 -86.41954803 98.46988869 C-86.42683232 96.72995398 -86.44104932 94.99003135 -86.46295929 93.25021935 C-86.77656918 67.26915794 -80.27041429 43.43979607 -62.35253906 23.99047852 C-45.96031891 8.60451346 -22.2696814 0.40063917 0 0 Z " fill="#51A5BB" transform="translate(434.0400390625,334.759521484375)"/>
<path d="M0 0 C2.43038761 2.40026924 4.64258235 4.70555812 6.59375 7.51171875 C7.29479858 8.51295776 7.29479858 8.51295776 8.01000977 9.53442383 C8.50170654 10.24493896 8.99340332 10.9554541 9.5 11.6875 C10.56110309 13.20579544 11.622304 14.72402253 12.68359375 16.2421875 C13.22741699 17.02303711 13.77124023 17.80388672 14.33154297 18.60839844 C17.06049577 22.52013704 19.81177162 26.41605929 22.5625 30.3125 C23.06265625 31.02301514 23.5628125 31.73353027 24.078125 32.46557617 C24.99220978 33.76235569 25.90881597 35.05736373 26.82861328 36.35009766 C27.80096134 37.71965334 28.75968918 39.09886704 29.71484375 40.48046875 C30.13894531 40.98191406 30.56304688 41.48335937 31 42 C31.66 42 32.32 42 33 42 C34.33643453 40.43843829 34.33643453 40.43843829 35.65234375 38.37109375 C36.17634766 37.59024414 36.70035156 36.80939453 37.24023438 36.00488281 C38.08038086 34.73402832 38.08038086 34.73402832 38.9375 33.4375 C44.35856432 25.36647407 49.95925152 17.47178275 55.76953125 9.67773438 C57.12450806 7.83023425 58.43602761 5.95495949 59.75 4.078125 C60.4925 3.06234375 61.235 2.0465625 62 1 C62.33 1 62.66 1 63 1 C63.15025464 6.97319989 63.25809978 12.94525917 63.32958984 18.91992188 C63.35944383 20.94485679 63.40014301 22.96966611 63.45263672 24.99414062 C63.78868984 38.30447984 62.84142125 48.94294435 57 61 C56.54842529 61.93473145 56.09685059 62.86946289 55.6315918 63.83251953 C49.1015018 76.70109387 38.11647279 83.72450406 25 89 C24.3922876 89.24661377 23.7845752 89.49322754 23.15844727 89.74731445 C18.58199048 91.54459157 14.03567437 92.83441283 9.1875 93.6875 C8.47408447 93.81487549 7.76066895 93.94225098 7.02563477 94.07348633 C-1.61931975 95.46590581 -10.27352982 95.25863303 -19 95 C-18 93 -18 93 -15.25 91.6875 C-8.65295283 88.26211012 -4.86928615 82.72075103 -2 76 C-1.10411087 71.59982317 -0.85134614 67.37796574 -0.79467773 62.89306641 C-0.77982834 61.86762726 -0.77982834 61.86762726 -0.76467896 60.82147217 C-0.73331237 58.58153645 -0.70840581 56.34157958 -0.68359375 54.1015625 C-0.66300271 52.54071529 -0.6420057 50.9798734 -0.62062073 49.41903687 C-0.56562195 45.32562579 -0.5161155 41.23216625 -0.46777344 37.13867188 C-0.41739559 32.95568568 -0.36179481 28.77276921 -0.30664062 24.58984375 C-0.19933082 16.39328826 -0.09782637 8.19667414 0 0 Z " fill="#226D8A" transform="translate(613,518)"/>
<path d="M0 0 C-1.97464069 1.97464069 -3.18489566 2.60090754 -5.6875 3.6875 C-12.39633872 6.96873203 -17.26408218 12.00821 -20 19 C-21.0007102 23.02560227 -21.15309198 26.85229259 -21.20532227 30.9934082 C-21.21522186 31.67688828 -21.22512146 32.36036835 -21.23532104 33.06455994 C-21.26675406 35.30993254 -21.29162095 37.55532626 -21.31640625 39.80078125 C-21.33699153 41.36305777 -21.3579884 42.92532891 -21.37937927 44.4875946 C-21.43443751 48.58923986 -21.48391808 52.69093401 -21.53222656 56.79266357 C-21.58256061 60.98226243 -21.6381844 65.17179072 -21.69335938 69.36132812 C-21.80074206 77.57415899 -21.90223076 85.78704909 -22 94 C-24.34813204 91.68086508 -26.50524475 89.48932672 -28.33984375 86.7421875 C-28.75693604 86.12496826 -29.17402832 85.50774902 -29.60375977 84.87182617 C-30.04389404 84.21287354 -30.48402832 83.5539209 -30.9375 82.875 C-35.74713613 75.76976133 -40.71466815 68.79287594 -45.75952148 61.85302734 C-46.54564819 60.77142334 -46.54564819 60.77142334 -47.34765625 59.66796875 C-47.81179932 59.03141357 -48.27594238 58.3948584 -48.75415039 57.73901367 C-49.86922201 56.18254588 -50.93792993 54.5931051 -52 53 C-56.18937715 54.51388856 -58.09656366 57.51982313 -60.5 61.0625 C-60.92506836 61.67303223 -61.35013672 62.28356445 -61.78808594 62.91259766 C-62.70903107 64.23550044 -63.62654442 65.56079739 -64.54101562 66.88818359 C-66.57266332 69.82890524 -68.63209887 72.74966458 -70.69335938 75.66967773 C-71.70201876 77.09866459 -72.70865933 78.52907944 -73.71289062 79.96118164 C-76.20363119 83.5043538 -78.7259949 87.02226291 -81.296875 90.5078125 C-81.79026367 91.17699707 -82.28365234 91.84618164 -82.79199219 92.53564453 C-83.19063477 93.01888184 -83.58927734 93.50211914 -84 94 C-84.33 94 -84.66 94 -85 94 C-85.07453656 87.75612963 -85.12878447 81.5125222 -85.16479492 75.26831055 C-85.17981784 73.14717086 -85.20024211 71.0260619 -85.22631836 68.9050293 C-85.26298838 65.84416081 -85.27979175 62.78370546 -85.29296875 59.72265625 C-85.30845261 58.78478775 -85.32393646 57.84691925 -85.33988953 56.88063049 C-85.34339034 42.97189318 -78.8081086 30.1069068 -69.27734375 20.1796875 C-50.32651414 2.04150067 -24.98210099 -0.44833282 0 0 Z " fill="#226C88" transform="translate(433,398)"/>
<path d="M0 0 C5.88574743 -0.12483638 11.77070198 -0.21491589 17.6574707 -0.2746582 C19.65435229 -0.2995971 21.65114456 -0.3335611 23.64770508 -0.37719727 C35.56776458 -0.63094258 45.18376626 -0.50263757 56 5 C57.79130438 5.79248607 59.58291661 6.58427713 61.375 7.375 C74.54144531 14.27676569 81.54842892 28.40765841 86 42 C86.39316406 43.02351563 86.78632812 44.04703125 87.19140625 45.1015625 C91.68249669 58.46529503 90.3510831 73.08495652 90 87 C88.66355987 84.38060461 87.59042281 81.85989888 86.6875 79.0625 C84.29341946 72.63064184 78.82449938 68.38785199 73 65 C69.44441185 63.8419211 66.02477102 63.8429137 62.30371094 63.79467773 C61.63988403 63.78477814 60.97605713 63.77487854 60.29211426 63.76467896 C58.10623698 63.7331874 55.920338 63.70835563 53.734375 63.68359375 C52.21550951 63.66301355 50.69664962 63.64201679 49.17779541 63.62062073 C45.18628475 63.56551016 41.19472335 63.51605247 37.203125 63.46777344 C33.1275584 63.41747783 29.0520652 63.36183389 24.9765625 63.30664062 C16.98443712 63.19919384 8.99225021 63.09771913 1 63 C1 62.34 1 61.68 1 61 C2.4765625 59.66015625 2.4765625 59.66015625 4.625 58.0625 C8.7036376 54.98114683 12.73962115 51.85668013 16.75 48.6875 C20.38988636 45.81154655 24.04062054 42.95662612 27.75390625 40.17578125 C28.35170898 39.72565674 28.94951172 39.27553223 29.56542969 38.81176758 C30.7061031 37.95530612 31.85112544 37.10459784 33.00097656 36.26049805 C35.70558178 34.22437512 36.90170693 33.29487921 38 30 C37.47156494 29.61255615 36.94312988 29.2251123 36.39868164 28.82592773 C33.95231477 27.03110715 31.50740373 25.23431309 29.0625 23.4375 C28.23169922 22.82841797 27.40089844 22.21933594 26.54492188 21.59179688 C21.62897142 17.97656483 16.7715004 14.29936288 11.96655273 10.5378418 C10.38236504 9.29900899 8.78670094 8.07485947 7.1875 6.85546875 C6.465625 6.30503906 5.74375 5.75460937 5 5.1875 C3.88625 4.34251953 3.88625 4.34251953 2.75 3.48046875 C1 2 1 2 0 0 Z " fill="#F6C643" transform="translate(523,336)"/>
<path d="M0 0 C2.18325241 2.18325241 2.94184214 3.94408126 4.1875 6.75 C7.643101 13.75213887 11.95017321 17.6385426 19.32780457 20.34281921 C25.28853099 21.80875798 31.54782649 21.48600581 37.65625 21.51171875 C39.16940753 21.52858691 40.68255122 21.54674 42.19567871 21.56611633 C46.1542529 21.61339093 50.11277099 21.64334532 54.0715332 21.66955566 C58.12071811 21.69947575 62.16971016 21.7459664 66.21875 21.79101562 C74.14573806 21.87679185 82.07274414 21.94425042 90 22 C84.54217467 27.50118013 84.54217467 27.50118013 81.609375 29.65625 C80.6805249 30.34509277 80.6805249 30.34509277 79.73291016 31.04785156 C78.75136963 31.76666504 78.75136963 31.76666504 77.75 32.5 C76.33521497 33.54589834 74.92117963 34.59281138 73.5078125 35.640625 C72.7746582 36.18396484 72.04150391 36.72730469 71.28613281 37.28710938 C68.92024308 39.05975806 66.57856695 40.86053539 64.2421875 42.671875 C63.47036133 43.26935547 62.69853516 43.86683594 61.90332031 44.48242188 C60.40248611 45.64680675 58.90436253 46.8146952 57.40917969 47.98632812 C56.73016602 48.51162109 56.05115234 49.03691406 55.3515625 49.578125 C54.75166504 50.04637695 54.15176758 50.51462891 53.53369141 50.99707031 C52 52 52 52 50 52 C50 52.66 50 53.32 50 54 C50.71027344 54.23589844 51.42054688 54.47179687 52.15234375 54.71484375 C55.50244559 56.22675528 57.78966635 58.15183238 60.5625 60.5625 C67.50421093 66.5014354 74.74715736 71.98302616 82.19921875 77.26953125 C83.20597656 77.98496094 84.21273437 78.70039062 85.25 79.4375 C86.16265625 80.07558594 87.0753125 80.71367188 88.015625 81.37109375 C88.99789062 82.17740234 88.99789062 82.17740234 90 83 C90 83.66 90 84.32 90 85 C83.81110785 85.12462143 77.62296362 85.21481812 71.43310547 85.2746582 C69.33238992 85.2996322 67.23175973 85.33362366 65.13134766 85.37719727 C45.90552718 85.7657362 33.10850316 82.80364979 18.75 69.125 C0.75739651 50.12076419 -0.64095631 24.79350469 0 0 Z " fill="#136F4B" transform="translate(411,591)"/>
<path d="M0 0 C0.83950699 -0.00511093 1.67901398 -0.01022186 2.54396057 -0.01548767 C5.31795389 -0.02938256 8.09169868 -0.02842682 10.86572266 -0.02612305 C12.79619438 -0.03001035 14.72666525 -0.03434509 16.65713501 -0.03910828 C20.70390596 -0.0465705 24.75058968 -0.04627942 28.79736328 -0.04101562 C33.97807163 -0.0352244 39.15842208 -0.05214363 44.33907127 -0.0753603 C48.32654908 -0.09010795 52.31394094 -0.09096787 56.30144119 -0.08785057 C58.21117486 -0.08836337 60.12091339 -0.09359344 62.03062057 -0.10366249 C64.70424237 -0.116028 67.37717018 -0.10923433 70.05078125 -0.09765625 C71.22926888 -0.10912186 71.22926888 -0.10912186 72.43156433 -0.12081909 C77.23253438 -0.07497081 80.47890262 0.66107795 84.65478516 3.2746582 C90.5712131 9.6841218 90.65478516 12.99685829 90.65478516 22.2746582 C54.35478516 22.2746582 18.05478516 22.2746582 -19.34521484 22.2746582 C-19.34521484 8.94132487 -19.34521484 8.94132487 -14.26708984 3.7980957 C-9.68493567 0.16590032 -5.73302206 -0.01798526 0 0 Z " fill="#EEF1EC" transform="translate(476.34521484375,249.725341796875)"/>
<path d="M0 0 C3.9228498 1.42589348 6.32644505 4.48464073 9.11889648 7.49438477 C17.45439218 16.42475983 28.50413586 21.21263076 40.64453125 22.0859375 C54.19276522 22.35862441 65.55878697 19.37980959 76.33203125 10.84765625 C78.93372302 8.23068288 81.43448948 5.58084681 83.84765625 2.7890625 C86.33203125 0.84765625 86.33203125 0.84765625 89.9453125 0.4296875 C93.33203125 0.84765625 93.33203125 0.84765625 96.26953125 2.97265625 C98.33203125 5.84765625 98.33203125 5.84765625 98.89453125 8.78515625 C97.49426181 16.40884544 90.92785158 22.17414048 84.92578125 26.63671875 C68.91147547 37.3286229 51.59424542 42.25187344 32.4140625 39.23046875 C16.60333853 35.99312661 0.88282012 27.78892949 -8.46875 14.23828125 C-10.14448941 10.8977193 -10.13670779 8.53060589 -9.66796875 4.84765625 C-7.35708533 1.0924707 -4.45663146 -0.19017166 0 0 Z " fill="#15704E" transform="translate(467.66796875,511.15234375)"/>
<path d="M0 0 C4.97653318 2.76474065 8.52244271 5.66935933 11.625 10.4375 C12.553125 11.860625 12.553125 11.860625 13.5 13.3125 C14.99559091 17.46691919 15.46638333 21.07833304 14.625 25.4375 C12.5625 28.5 12.5625 28.5 9.625 30.4375 C6.0625 31.0625 6.0625 31.0625 2.625 30.4375 C-0.25243226 27.79985376 -1.38177202 25.42113429 -2.875 21.8125 C-4.69320273 17.67520632 -4.69320273 17.67520632 -8.375 15.4375 C-13.13777452 14.83270324 -15.18663931 14.60024588 -19.125 17.375 C-21.52525032 20.64200738 -23.06612969 23.80406693 -24.578125 27.546875 C-25.375 29.4375 -25.375 29.4375 -26.375 30.4375 C-29.42911614 30.87114732 -32.32363588 30.89627153 -35.375 30.4375 C-38.87280267 27.70750768 -39.29990844 26.01007315 -39.875 21.625 C-39.4543941 14.40686008 -35.60071292 8.85172152 -30.41015625 4.046875 C-20.92058552 -3.45735368 -11.11779404 -5.11858834 0 0 Z " fill="#14704F" transform="translate(479.375,448.5625)"/>
<path d="M0 0 C7.1737182 5.32321133 11.24213789 11.94758595 12.5625 20.75 C12 24 12 24 9.9375 26.9375 C6.25937488 29.52001338 4.40768137 29.72125695 0 29 C-3.24668387 26.83554409 -4.26548192 24.50315596 -5.5 20.9375 C-6.37199501 18.45992687 -6.97256873 17.03251114 -8.6875 15 C-12.15026501 13.5025881 -15.34599535 13.24148407 -19 14 C-23.13951892 17.01055922 -25.02529569 20.64260905 -27.0078125 25.23046875 C-28 27 -28 27 -31 29 C-34.99800164 29.60839155 -36.52201252 29.33251303 -39.875 27 C-42.06313733 23.91086495 -42.74554912 22.03602655 -42.48046875 18.24609375 C-41.01139275 11.37846203 -37.53367208 5.50157143 -31.94140625 1.25 C-21.39803928 -5.53848578 -11.19741631 -5.94182779 0 0 Z " fill="#15714E" transform="translate(572,450)"/>
<path d="M0 0 C1.06834076 0.28421814 2.13668152 0.56843628 3.23739624 0.86126709 C14.94710485 3.81389894 25.87998075 4.53785738 37.9140625 4.390625 C39.74921035 4.38313847 41.58436635 4.377457 43.41952515 4.37347412 C48.18378891 4.35840716 52.94754273 4.31929588 57.71160889 4.2746582 C62.59933581 4.23328972 67.48714742 4.21537555 72.375 4.1953125 C81.91688725 4.15277739 91.45840077 4.08476467 101 4 C101 4.66 101 5.32 101 6 C76.91 6.33 52.82 6.66 28 7 C28 8.65 28 10.3 28 12 C18.76 12 9.52 12 0 12 C0 21.24 0 30.48 0 40 C-9.24 40 -18.48 40 -28 40 C-29.45770846 21.04979004 -29.45770846 21.04979004 -28 13 C-26.22509454 11.22509454 -23.62215098 11.76500027 -21.21484375 11.68359375 C-19.46010742 11.62075195 -19.46010742 11.62075195 -17.66992188 11.55664062 C-16.43822266 11.51732422 -15.20652344 11.47800781 -13.9375 11.4375 C-12.70193359 11.39431641 -11.46636719 11.35113281 -10.19335938 11.30664062 C-7.12902665 11.20015802 -4.06460927 11.09814576 -1 11 C-0.67 7.37 -0.34 3.74 0 0 Z " fill="#ECEEEC" transform="translate(401,671)"/>
<path d="M0 0 C6.01392146 -0.12387657 12.02709548 -0.21447072 18.04199219 -0.2746582 C20.08672019 -0.29975583 22.13135889 -0.33384164 24.17578125 -0.37719727 C27.12001611 -0.43805815 30.06306196 -0.4662573 33.0078125 -0.48828125 C33.9174173 -0.51408768 34.82702209 -0.5398941 35.76419067 -0.56648254 C40.10437376 -0.56838749 43.0550023 -0.43046158 46.50732422 2.35864258 C52.20680508 8.39808267 52 11.23444328 52 20 C34.51 20 17.02 20 -1 20 C-2 5 -2 5 0 0 Z " fill="#F6F7F6" transform="translate(515,251)"/>
<path d="M0 0 C1.25159912 0.00523682 2.50319824 0.01047363 3.79272461 0.01586914 C4.78942421 0.01799156 4.78942421 0.01799156 5.80625916 0.02015686 C7.93590735 0.02577021 10.06545175 0.03832485 12.19506836 0.05102539 C13.63582205 0.05603868 15.07657739 0.06060188 16.51733398 0.06469727 C20.05577938 0.07574394 23.59416375 0.09301747 27.13256836 0.11352539 C26.14256836 0.60852539 26.14256836 0.60852539 25.13256836 1.11352539 C25.14042358 2.12721191 25.14042358 2.12721191 25.1484375 3.16137695 C25.16924843 6.22875028 25.18224165 9.29610872 25.19506836 12.36352539 C25.20344727 13.42700195 25.21182617 14.49047852 25.22045898 15.58618164 C25.22529297 17.12338867 25.22529297 17.12338867 25.23022461 18.69165039 C25.23807983 20.10559082 25.23807983 20.10559082 25.24609375 21.5480957 C25.14009573 23.94342298 25.01442891 25.88280684 24.13256836 28.11352539 C20.52131266 29.31727729 17.25942853 29.17898484 13.50756836 29.11352539 C7.62541692 29.05518124 1.96805544 29.27988438 -3.86743164 30.11352539 C-4.86743164 28.11352539 -4.86743164 28.11352539 -4.42993164 25.66430664 C-3.66846132 20.85752524 -3.80130964 16.15768635 -3.86743164 11.30102539 C-3.89281241 9.39873688 -3.913889 7.49638432 -3.92993164 5.59399414 C-3.9415332 4.75763428 -3.95313477 3.92127441 -3.96508789 3.05957031 C-3.80581854 -0.11426974 -3.21391708 0.12724321 0 0 Z " fill="#F0F0F0" transform="translate(800.867431640625,625.886474609375)"/>
<path d="M0 0 C1.12591553 0.00523682 2.25183105 0.01047363 3.41186523 0.01586914 C4.62680664 0.0190918 5.84174805 0.02231445 7.09350586 0.02563477 C8.37290039 0.03401367 9.65229492 0.04239258 10.97045898 0.05102539 C12.2537207 0.05553711 13.53698242 0.06004883 14.85913086 0.06469727 C18.04211921 0.07652994 21.22501661 0.09301471 24.40795898 0.11352539 C25.45923826 3.49744118 25.44883496 6.44555964 25.28686523 9.97290039 C25.22221069 11.48062012 25.22221069 11.48062012 25.15625 13.01879883 C25.09493896 14.28755859 25.03362793 15.55631836 24.97045898 16.86352539 C24.78483398 20.90602539 24.59920898 24.94852539 24.40795898 29.11352539 C15.16795898 29.11352539 5.92795898 29.11352539 -3.59204102 29.11352539 C-3.61266602 24.51415039 -3.63329102 19.91477539 -3.65454102 15.17602539 C-3.66364502 13.72333252 -3.67274902 12.27063965 -3.68212891 10.77392578 C-3.68462646 9.63947021 -3.68712402 8.50501465 -3.68969727 7.33618164 C-3.69493408 6.16837158 -3.7001709 5.00056152 -3.70556641 3.79736328 C-3.55519047 0.24234674 -3.54549465 0.15528445 0 0 Z " fill="#F0F0F0" transform="translate(857.592041015625,198.886474609375)"/>
<path d="M0 0 C3.96930989 -0.02465881 7.93859034 -0.04284023 11.90795898 -0.05493164 C13.25920386 -0.05997057 14.61044326 -0.06680177 15.96166992 -0.07543945 C17.90020434 -0.08752419 19.838778 -0.09269828 21.77734375 -0.09765625 C23.52905884 -0.10551147 23.52905884 -0.10551147 25.31616211 -0.11352539 C28 0 28 0 29 1 C29.09962237 2.82985622 29.13080452 4.66352878 29.1328125 6.49609375 C29.13410156 7.61177734 29.13539063 8.72746094 29.13671875 9.87695312 C29.13285156 11.05193359 29.12898437 12.22691406 29.125 13.4375 C29.13080078 15.19416992 29.13080078 15.19416992 29.13671875 16.98632812 C29.13542969 18.10330078 29.13414062 19.22027344 29.1328125 20.37109375 C29.13168457 21.40161865 29.13055664 22.43214355 29.12939453 23.49389648 C29 26 29 26 28 28 C23.52084672 28.02886338 19.04171709 28.04675187 14.5625 28.0625 C13.28310547 28.07087891 12.00371094 28.07925781 10.68554688 28.08789062 C8.86313477 28.09272461 8.86313477 28.09272461 7.00390625 28.09765625 C5.87799072 28.10289307 4.7520752 28.10812988 3.59204102 28.11352539 C1 28 1 28 0 27 C-0.08758003 25.00035018 -0.10696576 22.9976389 -0.09765625 20.99609375 C-0.09443359 19.78115234 -0.09121094 18.56621094 -0.08789062 17.31445312 C-0.07951172 16.03505859 -0.07113281 14.75566406 -0.0625 13.4375 C-0.05798828 12.15423828 -0.05347656 10.87097656 -0.04882812 9.54882812 C-0.03699545 6.36583978 -0.02051068 3.18294238 0 0 Z " fill="#F0F0F0" transform="translate(712,939)"/>
<path d="M0 0 C0.04345703 2.70556641 0.04345703 2.70556641 -0.2421875 6.1015625 C-0.32839355 7.19291504 -0.41459961 8.28426758 -0.50341797 9.40869141 C-0.62604004 10.80007324 -0.74866211 12.19145508 -0.875 13.625 C-1.24625 18.03875 -1.6175 22.4525 -2 27 C-11.24 27 -20.48 27 -30 27 C-30.020625 22.565625 -30.04125 18.13125 -30.0625 13.5625 C-30.071604 12.16201416 -30.08070801 10.76152832 -30.09008789 9.31860352 C-30.09258545 8.22475342 -30.09508301 7.13090332 -30.09765625 6.00390625 C-30.10289307 4.87799072 -30.10812988 3.7520752 -30.11352539 2.59204102 C-30 0 -30 0 -29 -1 C-24.53312257 -1.41359187 -20.04443714 -1.51695445 -15.5625 -1.6875 C-14.29599609 -1.74744141 -13.02949219 -1.80738281 -11.72460938 -1.86914062 C-9.91379883 -1.9397168 -9.91379883 -1.9397168 -8.06640625 -2.01171875 C-6.95209229 -2.05772217 -5.83777832 -2.10372559 -4.68969727 -2.15112305 C-2 -2 -2 -2 0 0 Z " fill="#F0F0F0" transform="translate(884,684)"/>
<path d="M0 0 C0.33 0.99 0.66 1.98 1 3 C0.67 3.66 0.34 4.32 0 5 C7.59 5 15.18 5 23 5 C23 14.24 23 23.48 23 33 C13.76 33 4.52 33 -5 33 C-5.33 26.07 -5.66 19.14 -6 12 C-6.66 11.67 -7.32 11.34 -8 11 C-5.36 7.37 -2.72 3.74 0 0 Z " fill="#F0F1EF" transform="translate(689,479)"/>
<path d="M0 0 C9.24 0 18.48 0 28 0 C28 9.24 28 18.48 28 28 C18.76 28 9.52 28 0 28 C0 18.76 0 9.52 0 0 Z " fill="#F0F0F0" transform="translate(769,996)"/>
<path d="M0 0 C9.24 0 18.48 0 28 0 C28 9.24 28 18.48 28 28 C18.76 28 9.52 28 0 28 C0 18.76 0 9.52 0 0 Z " fill="#F0F0F0" transform="translate(769,939)"/>
<path d="M0 0 C9.24 0 18.48 0 28 0 C28 9.24 28 18.48 28 28 C18.76 28 9.52 28 0 28 C0 18.76 0 9.52 0 0 Z " fill="#F0F0F0" transform="translate(486,939)"/>
<path d="M0 0 C1.12591553 0.00523682 2.25183105 0.01047363 3.41186523 0.01586914 C4.50571533 0.0183667 5.59956543 0.02086426 6.7265625 0.0234375 C8.82729126 0.03709351 8.82729126 0.03709351 10.97045898 0.05102539 C17.62202148 0.08196289 17.62202148 0.08196289 24.40795898 0.11352539 C24.40795898 9.35352539 24.40795898 18.59352539 24.40795898 28.11352539 C19.97358398 28.29915039 15.53920898 28.48477539 10.97045898 28.67602539 C9.56997314 28.73733643 8.1694873 28.79864746 6.7265625 28.86181641 C5.08578735 28.92647095 5.08578735 28.92647095 3.41186523 28.99243164 C2.28594971 29.03956299 1.16003418 29.08669434 0 29.13525391 C-2.59204102 29.11352539 -2.59204102 29.11352539 -3.59204102 28.11352539 C-3.69187159 26.12595511 -3.72284855 24.1348502 -3.72485352 22.14477539 C-3.72614258 20.9343457 -3.72743164 19.72391602 -3.72875977 18.47680664 C-3.72489258 17.20192383 -3.72102539 15.92704102 -3.71704102 14.61352539 C-3.7209082 13.33864258 -3.72477539 12.06375977 -3.72875977 10.75024414 C-3.7274707 9.53981445 -3.72618164 8.32938477 -3.72485352 7.08227539 C-3.72372559 5.96272461 -3.72259766 4.84317383 -3.72143555 3.68969727 C-3.5467883 0.21256949 -3.48066421 0.15244503 0 0 Z " fill="#F0F0F0" transform="translate(404.592041015625,881.886474609375)"/>
<path d="M0 0 C1.12591553 0.00523682 2.25183105 0.01047363 3.41186523 0.01586914 C4.50571533 0.0183667 5.59956543 0.02086426 6.7265625 0.0234375 C8.82729126 0.03709351 8.82729126 0.03709351 10.97045898 0.05102539 C17.62202148 0.08196289 17.62202148 0.08196289 24.40795898 0.11352539 C24.40795898 9.35352539 24.40795898 18.59352539 24.40795898 28.11352539 C15.16795898 28.11352539 5.92795898 28.11352539 -3.59204102 28.11352539 C-3.61266602 23.67915039 -3.63329102 19.24477539 -3.65454102 14.67602539 C-3.66364502 13.27553955 -3.67274902 11.87505371 -3.68212891 10.43212891 C-3.68462646 9.33827881 -3.68712402 8.24442871 -3.68969727 7.11743164 C-3.69493408 5.99151611 -3.7001709 4.86560059 -3.70556641 3.70556641 C-3.55270048 0.21529211 -3.4902743 0.15286593 0 0 Z " fill="#FBFBFB" transform="translate(999.592041015625,995.886474609375)"/>
<path d="M0 0 C1.12591553 0.00523682 2.25183105 0.01047363 3.41186523 0.01586914 C4.50571533 0.0183667 5.59956543 0.02086426 6.7265625 0.0234375 C8.82729126 0.03709351 8.82729126 0.03709351 10.97045898 0.05102539 C17.62202148 0.08196289 17.62202148 0.08196289 24.40795898 0.11352539 C24.40795898 9.35352539 24.40795898 18.59352539 24.40795898 28.11352539 C15.16795898 28.11352539 5.92795898 28.11352539 -3.59204102 28.11352539 C-3.61266602 23.67915039 -3.63329102 19.24477539 -3.65454102 14.67602539 C-3.66364502 13.27553955 -3.67274902 11.87505371 -3.68212891 10.43212891 C-3.68462646 9.33827881 -3.68712402 8.24442871 -3.68969727 7.11743164 C-3.69493408 5.99151611 -3.7001709 4.86560059 -3.70556641 3.70556641 C-3.55270048 0.21529211 -3.4902743 0.15286593 0 0 Z " fill="#F0F0F0" transform="translate(93.592041015625,227.886474609375)"/>
<path d="M0 0 C1.12591553 0.00523682 2.25183105 0.01047363 3.41186523 0.01586914 C4.50571533 0.0183667 5.59956543 0.02086426 6.7265625 0.0234375 C8.82729126 0.03709351 8.82729126 0.03709351 10.97045898 0.05102539 C17.62202148 0.08196289 17.62202148 0.08196289 24.40795898 0.11352539 C24.40795898 9.35352539 24.40795898 18.59352539 24.40795898 28.11352539 C15.16795898 28.11352539 5.92795898 28.11352539 -3.59204102 28.11352539 C-3.61266602 23.67915039 -3.63329102 19.24477539 -3.65454102 14.67602539 C-3.66364502 13.27553955 -3.67274902 11.87505371 -3.68212891 10.43212891 C-3.68462646 9.33827881 -3.68712402 8.24442871 -3.68969727 7.11743164 C-3.69493408 5.99151611 -3.7001709 4.86560059 -3.70556641 3.70556641 C-3.55270048 0.21529211 -3.4902743 0.15286593 0 0 Z " fill="#F0F0F0" transform="translate(829.592041015625,170.886474609375)"/>
<path d="M0 0 C5.94 0 11.88 0 18 0 C18 8.25 18 16.5 18 25 C12.39 25 6.78 25 1 25 C1 30.94 1 36.88 1 43 C0.67 43 0.34 43 0 43 C0 28.81 0 14.62 0 0 Z " fill="#EFF1EC" transform="translate(411,544)"/>
<path d="M0 0 C0 3.63 0 7.26 0 11 C-9.24 11 -18.48 11 -28 11 C-28 9.02 -28 7.04 -28 5 C-28.99 4.67 -29.98 4.34 -31 4 C-30.08504761 3.83395264 -30.08504761 3.83395264 -29.15161133 3.66455078 C-26.37089239 3.15675584 -23.59171554 2.64095706 -20.8125 2.125 C-19.85279297 1.95097656 -18.89308594 1.77695312 -17.90429688 1.59765625 C-16.50727539 1.33662109 -16.50727539 1.33662109 -15.08203125 1.0703125 C-14.22843018 0.91320801 -13.3748291 0.75610352 -12.49536133 0.59423828 C-9.93626375 0.07656609 -9.93626375 0.07656609 -7.49487305 -1.19189453 C-5 -2 -5 -2 0 0 Z " fill="#ECF0F0" transform="translate(627,672)"/>
<path d="M0 0 C2.49039487 3.7355923 2.36606986 6.7631107 2.44921875 11.09765625 C2.48182549 12.28276039 2.48182549 12.28276039 2.51509094 13.49180603 C2.558968 15.16019526 2.5981769 16.82871287 2.63305664 18.49731445 C2.68737417 21.05657142 2.75754563 23.61502925 2.83007812 26.17382812 C2.870729 27.79424759 2.91047349 29.4146901 2.94921875 31.03515625 C2.96997971 31.80287857 2.99074066 32.57060089 3.01213074 33.36158752 C3.11587311 38.76825379 3.11587311 38.76825379 2 41 C2.66 41 3.32 41 4 41 C2.67585611 44.97243168 1.0120432 47.13488574 -2 50 C-2.05076475 43.68289629 -2.0857608 37.36584531 -2.10986328 31.04858398 C-2.11991265 28.90012649 -2.13355433 26.75168263 -2.15087891 24.60327148 C-2.17517376 21.51282378 -2.18649386 18.42255713 -2.1953125 15.33203125 C-2.20563507 14.37351761 -2.21595764 13.41500397 -2.22659302 12.42744446 C-2.22736062 7.85139249 -2.20761889 4.14405967 0 0 Z " fill="#1E667F" transform="translate(350,442)"/>
<path d="M0 0 C0.33 0 0.66 0 1 0 C1 13.86 1 27.72 1 42 C-6.59 42.33 -14.18 42.66 -22 43 C-22 42.34 -22 41.68 -22 41 C-19.03 41 -16.06 41 -13 41 C-13 38.03 -13 35.06 -13 32 C-8.71 32 -4.42 32 0 32 C0 21.44 0 10.88 0 0 Z " fill="#E2ECD3" transform="translate(612,423)"/>
<path d="M0 0 C0.66 0.33 1.32 0.66 2 1 C3.0394775 4.1184325 3.11494838 6.27475586 3.09765625 9.54296875 C3.09443359 10.61611328 3.09121094 11.68925781 3.08789062 12.79492188 C3.07951172 13.91447266 3.07113281 15.03402344 3.0625 16.1875 C3.05798828 17.31865234 3.05347656 18.44980469 3.04882812 19.61523438 C3.03703498 22.41020927 3.0205765 25.2050782 3 28 C1.35 28.33 -0.3 28.66 -2 29 C-2 19.76 -2 10.52 -2 1 C-1.34 0.67 -0.68 0.34 0 0 Z " fill="#F0F0F0" transform="translate(2,398)"/>
<path d="M0 0 C1.32 0 2.64 0 4 0 C4.81022865 5.77040892 5.23968125 11.42449991 5.3125 17.25 C5.35600586 18.43335938 5.35600586 18.43335938 5.40039062 19.640625 C5.4635906 25.39668449 5.4635906 25.39668449 3.04296875 28.546875 C1 30 1 30 0 30 C0 20.1 0 10.2 0 0 Z " fill="#F0F0F0" transform="translate(0,0)"/>
<path d="M0 0 C0.99 0.33 1.98 0.66 3 1 C3.75741925 10.02140429 4.13534286 18.94706663 4 28 C2.35 28.33 0.7 28.66 -1 29 C-1.02465881 25.03069011 -1.04284023 21.06140966 -1.05493164 17.09204102 C-1.05997057 15.74079614 -1.06680177 14.38955674 -1.07543945 13.03833008 C-1.08752419 11.09979566 -1.09269828 9.161222 -1.09765625 7.22265625 C-1.10289307 6.05484619 -1.10812988 4.88703613 -1.11352539 3.68383789 C-1 1 -1 1 0 0 Z " fill="#EFEFF0" transform="translate(1,284)"/>
<path d="M0 0 C1.32 0 2.64 0 4 0 C4.94512916 9.56761524 4.94512916 18.43238476 4 28 C2.68 28 1.36 28 0 28 C0 18.76 0 9.52 0 0 Z " fill="#EFEFEF" transform="translate(0,797)"/>
<path d="M0 0 C2.475 0.495 2.475 0.495 5 1 C5.02892385 5.12498538 5.04677267 9.24994485 5.0625 13.375 C5.07087891 14.550625 5.07925781 15.72625 5.08789062 16.9375 C5.09111328 18.05898438 5.09433594 19.18046875 5.09765625 20.3359375 C5.10289307 21.37282715 5.10812988 22.4097168 5.11352539 23.47802734 C5 26 5 26 4 28 C2.68 28 1.36 28 0 28 C0 18.76 0 9.52 0 0 Z " fill="#EFEFEF" transform="translate(0,939)"/>
<path d="M0 0 C4.70541082 4.70541082 4.70541082 4.70541082 5 8 C4.76408695 10.09338937 4.44529026 12.17842918 4.0625 14.25 C3.86785156 15.32765625 3.67320312 16.4053125 3.47265625 17.515625 C3.31667969 18.33546875 3.16070313 19.1553125 3 20 C2.34 20 1.68 20 1 20 C1 36.17 1 52.34 1 69 C0.67 69 0.34 69 0 69 C0 46.23 0 23.46 0 0 Z " fill="#175A72" transform="translate(613,518)"/>
<path d="M0 0 C0.66 0 1.32 0 2 0 C2.02314476 7.91886714 2.040926 15.8377202 2.05181217 23.75661278 C2.05703632 27.43345711 2.0641255 31.11027834 2.07543945 34.78710938 C2.08628493 38.3337896 2.09228037 41.88044757 2.09487724 45.4271431 C2.09672849 46.78196183 2.10034338 48.13677931 2.10573006 49.49158859 C2.11296238 51.38549365 2.11340824 53.27942098 2.11352539 55.17333984 C2.115746 56.25255707 2.11796661 57.33177429 2.12025452 58.44369507 C2 61 2 61 1 63 C0.34 63 -0.32 63 -1 63 C-0.67 42.21 -0.34 21.42 0 0 Z " fill="#1C627E" transform="translate(614,538)"/>
<path d="M0 0 C1.670625 0.061875 1.670625 0.061875 3.375 0.125 C4.375 3.125 4.375 3.125 3.5546875 4.84375 C0.8543033 8.53050208 -1.41469395 11.07999421 -5.625 13.125 C-6.86121824 10.65256353 -6.60908601 9.35182061 -6.3125 6.625 C-6.23386719 5.8309375 -6.15523437 5.036875 -6.07421875 4.21875 C-5.23167749 0.29177509 -3.88916376 0.1341091 0 0 Z " fill="#E8EEEE" transform="translate(604.625,596.875)"/>
<path d="M0 0 C0 3 0 3 -2 5.1875 C-2.99463584 6.13068916 -3.9955365 7.0672839 -5 8 C-6.42537533 9.34499702 -7.84162097 10.69971597 -9.25 12.0625 C-9.93578125 12.71347656 -10.6215625 13.36445313 -11.328125 14.03515625 C-13.10831659 16.1272973 -13.37230376 17.39722509 -14 20 C-14.99 20.66 -15.98 21.32 -17 22 C-17.72382467 24.05925139 -17.72382467 24.05925139 -18 26 C-19.32 26.33 -20.64 26.66 -22 27 C-17.03539982 15.82964959 -9.24066349 7.83941533 0 0 Z " fill="#60A7B9" transform="translate(380,352)"/>
<path d="M0 0 C0.33 0 0.66 0 1 0 C2.23162186 11.44460927 1.7492131 22.5428027 1 34 C-0.95916502 31.06125247 -1.33806509 29.9818665 -1.6875 26.625 C-1.77386719 25.87476563 -1.86023438 25.12453125 -1.94921875 24.3515625 C-2.0055967 21.74082981 -1.51451854 19.56172258 -1 17 C-0.73812481 14.06642154 -0.58788573 11.12865033 -0.4375 8.1875 C-0.39431641 7.39923828 -0.35113281 6.61097656 -0.30664062 5.79882812 C-0.20121679 3.86605785 -0.10016906 1.93304974 0 0 Z " fill="#8FC36A" transform="translate(410,577)"/>
<path d="M0 0 C0.66 0.33 1.32 0.66 2 1 C1.34 2.65 0.68 4.3 0 6 C0.99 6.33 1.98 6.66 3 7 C2 8 2 8 -0.28515625 8.09765625 C-1.65994141 8.08025391 -1.65994141 8.08025391 -3.0625 8.0625 C-3.98160156 8.05347656 -4.90070312 8.04445313 -5.84765625 8.03515625 C-6.55792969 8.02355469 -7.26820313 8.01195312 -8 8 C-7.04578192 6.85073734 -6.08647955 5.70569459 -5.125 4.5625 C-4.59132813 3.92441406 -4.05765625 3.28632813 -3.5078125 2.62890625 C-2 1 -2 1 0 0 Z " fill="#F3C85A" transform="translate(533,390)"/>
<path d="M0 0 C0.33 0.99 0.66 1.98 1 3 C1.66 3 2.32 3 3 3 C1.68775452 6.93673644 0.08089673 9.22719294 -3 12 C-3 8.37 -3 4.74 -3 1 C-2.01 0.67 -1.02 0.34 0 0 Z " fill="#175B73" transform="translate(351,480)"/>
<path d="M0 0 C6.21939495 2.89274184 10.86614657 5.73229314 14 12 C14 12.66 14 13.32 14 14 C9.99908085 12.66636028 8.66353833 10.196246 6 7 C5.01 6.67 4.02 6.34 3 6 C2.67 5.01 2.34 4.02 2 3 C1.34 2.67 0.68 2.34 0 2 C0 1.34 0 0.68 0 0 Z " fill="#F1EAC4" transform="translate(596,401)"/>
<path d="M0 0 C0.33 0 0.66 0 1 0 C1.33 2.97 1.66 5.94 2 9 C5.96 9.33 9.92 9.66 14 10 C11 13 11 13 8.125 13.5 C5 13 5 13 2.125 11 C-0.72988584 6.96957293 -0.41040319 4.84275759 0 0 Z " fill="#1F7857" transform="translate(530,466)"/>
<path d="M0 0 C3.83450856 1.54787502 6.02555699 3.93722746 8.75 7 C9.54921875 7.886875 10.3484375 8.77375 11.171875 9.6875 C13 12 13 12 13 14 C7.53272028 11.55537933 3.1952702 7.44250866 0.5625 2.0625 C0.376875 1.381875 0.19125 0.70125 0 0 Z " fill="#DDC44B" transform="translate(586,345)"/>
<path d="M0 0 C1.3303125 0.4640625 1.3303125 0.4640625 2.6875 0.9375 C2.6875 1.2675 2.6875 1.5975 2.6875 1.9375 C-3.5825 1.9375 -9.8525 1.9375 -16.3125 1.9375 C-16.3125 1.6075 -16.3125 1.2775 -16.3125 0.9375 C-15.36375 0.628125 -14.415 0.31875 -13.4375 0 C-7.79681717 -1.91783216 -5.85489304 -1.87798456 0 0 Z " fill="#8CC261" transform="translate(453.3125,674.0625)"/>
<path d="M0 0 C5.28 0 10.56 0 16 0 C13 4 13 4 11 5 C8.3984375 4.22265625 8.3984375 4.22265625 5.375 3.0625 C4.37210938 2.68222656 3.36921875 2.30195313 2.3359375 1.91015625 C1.56507813 1.60980469 0.79421875 1.30945313 0 1 C0 0.67 0 0.34 0 0 Z " fill="#A1BD59" transform="translate(566,336)"/>
<path d="M0 0 C0.33 1.32 0.66 2.64 1 4 C4.3 4.33 7.6 4.66 11 5 C11 5.33 11 5.66 11 6 C4.73 6 -1.54 6 -8 6 C-6.49650603 2.99301207 -3.9581052 2.41742541 -1 1 C-0.67 0.67 -0.34 0.34 0 0 Z " fill="#387F96" transform="translate(602,607)"/>
<path d="M0 0 C0.66 0 1.32 0 2 0 C2.49230769 6.4 2.49230769 6.4 0 9.4375 C-0.99 10.2109375 -0.99 10.2109375 -2 11 C-3.32 10.01 -4.64 9.02 -6 8 C-5.01 8 -4.02 8 -3 8 C-3 6.35 -3 4.7 -3 3 C-2.34 3.66 -1.68 4.32 -1 5 C-0.67 3.35 -0.34 1.7 0 0 Z " fill="#29805F" transform="translate(582,467)"/>
<path d="M0 0 C2.12508244 3.18762365 2.5020163 5.26512223 3 9 C3.33 9 3.66 9 4 9 C4 14.61 4 20.22 4 26 C3.67 26 3.34 26 3 26 C2.49559207 22.41727273 1.99724229 18.83372823 1.5 15.25 C1.35691406 14.23421875 1.21382812 13.2184375 1.06640625 12.171875 C0.93105469 11.1921875 0.79570313 10.2125 0.65625 9.203125 C0.53056641 8.30239258 0.40488281 7.40166016 0.27539062 6.47363281 C0 4 0 4 0 0 Z " fill="#E6F2D7" transform="translate(673,397)"/>
<path d="M0 0 C2.6855594 2.6855594 3.06049974 5.37621328 4 9 C3.01 8.67 2.02 8.34 1 8 C1 12.95 1 17.9 1 23 C0.67 23 0.34 23 0 23 C0 15.41 0 7.82 0 0 Z " fill="#2F7C4B" transform="translate(411,591)"/>
<path d="M0 0 C1.32 0.33 2.64 0.66 4 1 C0.04 3.97 -3.92 6.94 -8 10 C-8.33 9.01 -8.66 8.02 -9 7 C-7.33784732 5.66104368 -5.67036393 4.32869858 -4 3 C-3.319375 2.401875 -2.63875 1.80375 -1.9375 1.1875 C-1.298125 0.795625 -0.65875 0.40375 0 0 Z " fill="#F7F0D0" transform="translate(541,381)"/>
<path d="M0 0 C0.66 0 1.32 0 2 0 C2 3.63 2 7.26 2 11 C1.34 11 0.68 11 0 11 C-0.33 11.99 -0.66 12.98 -1 14 C-2.4552777 11.0894446 -1.63516661 9.04150948 -1.0625 5.875 C-0.77052734 4.23144531 -0.77052734 4.23144531 -0.47265625 2.5546875 C-0.31667969 1.71164062 -0.16070313 0.86859375 0 0 Z " fill="#DEEAEA" transform="translate(675,599)"/>
<path d="M0 0 C0 0.66 0 1.32 0 2 C-0.66 2 -1.32 2 -2 2 C-2.268125 2.61875 -2.53625 3.2375 -2.8125 3.875 C-5.06914797 7.91321215 -8.81798051 8.69892727 -13 10 C-3.28571429 0 -3.28571429 0 0 0 Z " fill="#F1C95F" transform="translate(558,372)"/>
<path d="M0 0 C3.3 0.33 6.6 0.66 10 1 C8.515 2.485 8.515 2.485 7 4 C3.3125 3.6875 3.3125 3.6875 0 3 C0 2.01 0 1.02 0 0 Z " fill="#EAEFE2" transform="translate(409,674)"/>
<path d="M0 0 C0.12375 0.639375 0.2475 1.27875 0.375 1.9375 C0.684375 2.9584375 0.684375 2.9584375 1 4 C1.66 4.33 2.32 4.66 3 5 C3 5.66 3 6.32 3 7 C-1.31392226 6.5206753 -3.16569547 5.2542015 -6 2 C-2.25 0 -2.25 0 0 0 Z " fill="#186545" transform="translate(480,536)"/>
<path d="M0 0 C0.66 0.33 1.32 0.66 2 1 C0.5741914 4.45195767 -1.09746334 6.1014256 -4.125 8.25 C-4.84945312 8.77078125 -5.57390625 9.2915625 -6.3203125 9.828125 C-6.87460937 10.21484375 -7.42890625 10.6015625 -8 11 C-7.40137646 7.79837298 -7.08735442 7.08063485 -4.5625 4.75 C-2 3 -2 3 0 3 C0 2.01 0 1.02 0 0 Z " fill="#F7F0D0" transform="translate(560,365)"/>
<path d="M0 0 C0.99 0.495 0.99 0.495 2 1 C2.4140625 3.28515625 2.4140625 3.28515625 2.625 6.0625 C2.69976562 6.98160156 2.77453125 7.90070313 2.8515625 8.84765625 C2.92503906 9.91306641 2.92503906 9.91306641 3 11 C2.01 11.33 1.02 11.66 0 12 C0 8.04 0 4.08 0 0 Z " fill="#5AA3B5" transform="translate(468,410)"/>
<path d="M0 0 C1.32 0 2.64 0 4 0 C3.8125 1.8125 3.8125 1.8125 3 4 C0.4375 5.75 0.4375 5.75 -2 7 C-2.33 6.34 -2.66 5.68 -3 5 C-2.67 4.01 -2.34 3.02 -2 2 C-1.34 2 -0.68 2 0 2 C0 1.34 0 0.68 0 0 Z " fill="#187552" transform="translate(480,624)"/>
<path d="M0 0 C1.32 0 2.64 0 4 0 C4.33 2.31 4.66 4.62 5 7 C4.01 7 3.02 7 2 7 C0 4 0 4 0 0 Z " fill="#126242" transform="translate(459,521)"/>
<path d="M0 0 C3.21880117 3.7935871 5.6163187 7.65829477 8 12 C3.78456242 10.49448658 2.13950875 7.82055134 0 4 C0 2.68 0 1.36 0 0 Z " fill="#E8F1DB" transform="translate(599,478)"/>
<path d="M0 0 C1.98 0.66 3.96 1.32 6 2 C6.33 4.31 6.66 6.62 7 9 C6.34 9 5.68 9 5 9 C3.35 6.03 1.7 3.06 0 0 Z " fill="#E4EEE9" transform="translate(487,454)"/>
<path d="M0 0 C3.96 0 7.92 0 12 0 C12 0.66 12 1.32 12 2 C6.06 2.495 6.06 2.495 0 3 C0 2.01 0 1.02 0 0 Z " fill="#398367" transform="translate(461,446)"/>
<path d="M0 0 C0.66 0.33 1.32 0.66 2 1 C2 1.99 2 2.98 2 4 C1.01 4.66 0.02 5.32 -1 6 C-1.72382467 8.05925139 -1.72382467 8.05925139 -2 10 C-3.32 10.33 -4.64 10.66 -6 11 C-5.37755401 9.72791378 -4.75193233 8.45738118 -4.125 7.1875 C-3.77695312 6.47980469 -3.42890625 5.77210938 -3.0703125 5.04296875 C-2 3 -2 3 0 0 Z " fill="#6BACBB" transform="translate(364,368)"/>
<path d="M0 0 C2.31 0 4.62 0 7 0 C7 0.66 7 1.32 7 2 C7.66 2.33 8.32 2.66 9 3 C4.545 3.495 4.545 3.495 0 4 C0 2.68 0 1.36 0 0 Z " fill="#27805E" transform="translate(521,546)"/>
<path d="M0 0 C0.66 1.32 1.32 2.64 2 4 C0.68 5.32 -0.64 6.64 -2 8 C-2.99 7.67 -3.98 7.34 -5 7 C-3.35 4.69 -1.7 2.38 0 0 Z " fill="#2F738C" transform="translate(659,541)"/>
<path d="M0 0 C-0.1875 2.375 -0.1875 2.375 -1 5 C-3.5625 6.3125 -3.5625 6.3125 -6 7 C-6.33 6.01 -6.66 5.02 -7 4 C-2.25 0 -2.25 0 0 0 Z " fill="#207354" transform="translate(544,450)"/>
<path d="M0 0 C2 2 2 2 2.125 4.625 C2.08375 5.40875 2.0425 6.1925 2 7 C1.34 7 0.68 7 0 7 C-0.33 8.65 -0.66 10.3 -1 12 C-1.66 12 -2.32 12 -3 12 C-2.01 8.04 -1.02 4.08 0 0 Z " fill="#34778F" transform="translate(612,588)"/>
<path d="M0 0 C2.70238949 4.05358424 2.22937614 6.18310104 2 11 C1.67 11.66 1.34 12.32 1 13 C0.34 13 -0.32 13 -1 13 C-1.02686553 11.02090602 -1.04633375 9.04171029 -1.0625 7.0625 C-1.07410156 5.96035156 -1.08570313 4.85820313 -1.09765625 3.72265625 C-1 1 -1 1 0 0 Z " fill="#1D6682" transform="translate(614,588)"/>
<path d="M0 0 C0.66 0 1.32 0 2 0 C1.84518205 2.70931419 1.51827919 4.46584039 -0.40234375 6.4453125 C-1.89771708 7.67679642 -3.4462924 8.8429837 -5 10 C-3.66749209 6.4124787 -2.169283 3.1635377 0 0 Z " fill="#EAF4DC" transform="translate(697,466)"/>
<path d="M0 0 C4.41889613 1.35021826 6.34345343 3.26115668 9 7 C5.59687262 5.94124926 2.98646769 4.99097846 0 3 C0 2.01 0 1.02 0 0 Z " fill="#F7F0CD" transform="translate(527,341)"/>
<path d="M0 0 C2.31 0 4.62 0 7 0 C6.34 1.32 5.68 2.64 5 4 C5.99 3.67 6.98 3.34 8 3 C7.67 3.99 7.34 4.98 7 6 C3.73539027 4.19587357 2.11070205 3.16605307 0 0 Z " fill="#F3C961" transform="translate(523,336)"/>
<path d="M0 0 C0.33 0 0.66 0 1 0 C1 2.97 1 5.94 1 9 C-0.98 9.99 -0.98 9.99 -3 11 C-2.01 7.37 -1.02 3.74 0 0 Z " fill="#4898AC" transform="translate(675,563)"/>
<path d="M0 0 C-1.3125 2 -1.3125 2 -3 4 C-3.99 4 -4.98 4 -6 4 C-6 3.34 -6 2.68 -6 2 C-6.66 1.67 -7.32 1.34 -8 1 C-3.375 -1.125 -3.375 -1.125 0 0 Z " fill="#1B7654" transform="translate(456,475)"/>
<path d="M0 0 C2.31 0 4.62 0 7 0 C7 0.99 7 1.98 7 3 C2.25 4.125 2.25 4.125 0 3 C0 2.01 0 1.02 0 0 Z " fill="#0F6445" transform="translate(572,472)"/>
<path d="M0 0 C0.66 0.33 1.32 0.66 2 1 C1.37240135 3.92879371 0.41377341 6.36095629 -1 9 C-1.33 9 -1.66 9 -2 9 C-2.25 3.375 -2.25 3.375 0 0 Z " fill="#EBF2E5" transform="translate(347,597)"/>
<path d="M0 0 C0.66 0.99 1.32 1.98 2 3 C1.01 4.98 0.02 6.96 -1 9 C-1.33 8.34 -1.66 7.68 -2 7 C-2.66 6.67 -3.32 6.34 -4 6 C-2.68 4.02 -1.36 2.04 0 0 Z " fill="#9CCA65" transform="translate(349,508)"/>
<path d="M0 0 C-1.1858237 3.37503669 -2.27573689 5.64722731 -5 8 C-5.36625971 3.48279689 -5.36625971 3.48279689 -3.625 1.1875 C-2 0 -2 0 0 0 Z " fill="#256178" transform="translate(354,483)"/>
<path d="M0 0 C0.33 0 0.66 0 1 0 C1.33 2.97 1.66 5.94 2 9 C3.65 9.33 5.3 9.66 7 10 C5.02 10.99 5.02 10.99 3 12 C1.09598862 10.09598862 0.06479561 8.66574314 -0.19921875 5.953125 C-0.1886578 3.96766727 -0.09915043 1.9830086 0 0 Z " fill="#318363" transform="translate(530,466)"/>
<path d="M0 0 C2 3 2 3 1.625 5.6875 C1.41875 6.450625 1.2125 7.21375 1 8 C-0.32 7.67 -1.64 7.34 -3 7 C-2.01 4.69 -1.02 2.38 0 0 Z " fill="#0C6341" transform="translate(544,468)"/>
<path d="M0 0 C0.99 0.33 1.98 0.66 3 1 C3 2.98 3 4.96 3 7 C2.01 7.33 1.02 7.66 0 8 C0 5.36 0 2.72 0 0 Z " fill="#EBEFE8" transform="translate(457,260)"/>
<path d="M0 0 C2.5 1.375 2.5 1.375 5 3 C5 3.66 5 4.32 5 5 C2.36 4.67 -0.28 4.34 -3 4 C-2.01 2.68 -1.02 1.36 0 0 Z " fill="#1F7254" transform="translate(496,671)"/>
<path d="M0 0 C2.31 1.98 4.62 3.96 7 6 C6.01 6.33 5.02 6.66 4 7 C2 5.1875 2 5.1875 0 3 C0 2.01 0 1.02 0 0 Z " fill="#EBF2DD" transform="translate(368,648)"/>
<path d="M0 0 C2.25245881 2.68841859 3.88213958 4.64641875 5 8 C4.01 7.67 3.02 7.34 2 7 C2 6.34 2 5.68 2 5 C1.01 5.33 0.02 5.66 -1 6 C-0.67 4.02 -0.34 2.04 0 0 Z " fill="#2F738B" transform="translate(634,547)"/>
<path d="M0 0 C0.99 0.33 1.98 0.66 3 1 C0.6875 3.5 0.6875 3.5 -2 6 C-2.99 6 -3.98 6 -5 6 C-3.35 4.02 -1.7 2.04 0 0 Z " fill="#32768D" transform="translate(666,532)"/>
<path d="M0 0 C0.33 0.66 0.66 1.32 1 2 C-4.14285714 7.57142857 -4.14285714 7.57142857 -8 8 C-5.33333333 5.33333333 -2.66666667 2.66666667 0 0 Z " fill="#217154" transform="translate(549,517)"/>
<path d="M0 0 C6.0546875 -0.1953125 6.0546875 -0.1953125 8 0 C8.66 0.66 9.32 1.32 10 2 C9.01 3.485 9.01 3.485 8 5 C7.34 5 6.68 5 6 5 C6 3.68 6 2.36 6 1 C4.02 1 2.04 1 0 1 C0 0.67 0 0.34 0 0 Z " fill="#DEE6E3" transform="translate(553,463)"/>
<path d="M0 0 C0.66 0.66 1.32 1.32 2 2 C-0.64 3.65 -3.28 5.3 -6 7 C-6 6.01 -6 5.02 -6 4 C-3 1.8125 -3 1.8125 0 0 Z " fill="#E9F1E8" transform="translate(339,275)"/>
<path d="M0 0 C0.99 0.33 1.98 0.66 3 1 C3 2.98 3 4.96 3 7 C1.68 5.68 0.36 4.36 -1 3 C-0.67 2.01 -0.34 1.02 0 0 Z " fill="#276781" transform="translate(407,483)"/>
<path d="M0 0 C0.99 0 1.98 0 3 0 C3.33 2.31 3.66 4.62 4 7 C3.34 7 2.68 7 2 7 C1.34 4.69 0.68 2.38 0 0 Z " fill="#0D6746" transform="translate(476,466)"/>
<path d="M0 0 C1.32 0.66 2.64 1.32 4 2 C2.02 3.32 0.04 4.64 -2 6 C-2 3 -2 3 0 0 Z " fill="#DEEEEE" transform="translate(379,349)"/>
<path d="M0 0 C3.82097239 0.53069061 6.06171403 1.49701566 9 4 C8.67 4.99 8.34 5.98 8 7 C6.66382648 6.02471263 5.3311249 5.04466681 4 4.0625 C3.2575 3.51722656 2.515 2.97195313 1.75 2.41015625 C1.1725 1.94480469 0.595 1.47945313 0 1 C0 0.67 0 0.34 0 0 Z " fill="#E4EEE2" transform="translate(683,276)"/>
<path d="M0 0 C0.66 0.33 1.32 0.66 2 1 C0.02 3.97 0.02 3.97 -2 7 C-2.66 5.68 -3.32 4.36 -4 3 C-2.68 2.01 -1.36 1.02 0 0 Z " fill="#E9F1E4" transform="translate(327,536)"/>
<path d="M0 0 C0.99 0.66 1.98 1.32 3 2 C0.03 4.475 0.03 4.475 -3 7 C-3 3 -3 3 -1.5 1.25 C-1.005 0.8375 -0.51 0.425 0 0 Z " fill="#E5EFEB" transform="translate(547,515)"/>
<path d="M0 0 C0.66 0 1.32 0 2 0 C1.67 0.99 1.34 1.98 1 3 C0.67 2.01 0.34 1.02 0 0 Z M0 3 C-1.75 6.875 -1.75 6.875 -4 8 C-4 6.68 -4 5.36 -4 4 C-2 3 -2 3 0 3 Z " fill="#126847" transform="translate(445,462)"/>
<path d="M0 0 C0.99 0.33 1.98 0.66 3 1 C3 1.66 3 2.32 3 3 C3.66 3.33 4.32 3.66 5 4 C4.01 4.66 3.02 5.32 2 6 C1.34 5.34 0.68 4.68 0 4 C0 2.68 0 1.36 0 0 Z " fill="#E6F2ED" transform="translate(573,448)"/>
<path d="M0 0 C2.64 0 5.28 0 8 0 C6.25 1.5625 6.25 1.5625 4 3 C1.75 2.6875 1.75 2.6875 0 2 C0 1.34 0 0.68 0 0 Z " fill="#175C78" transform="translate(422,399)"/>
</svg>
